<?xml version="1.0" standalone="no"?>
<!DOCTYPE svg PUBLIC "-//W3C//DTD SVG 20010904//EN"
 "http://www.w3.org/TR/2001/REC-SVG-20010904/DTD/svg10.dtd">
<svg version="1.0" xmlns="http://www.w3.org/2000/svg"
 width="1000.000000pt" height="1000.000000pt" viewBox="0 0 1000.000000 1000.000000"
 preserveAspectRatio="xMidYMid meet">
<metadata>
Created by potrace 1.11, written by Peter Selinger 2001-2013
</metadata>
<g transform="translate(0.000000,1000.000000) scale(0.100000,-0.100000)"
fill="#000000" stroke="none">
<path d="M6039 9476 c-45 -63 -136 -125 -209 -142 -63 -14 -140 -22 -140 -15
0 3 -66 5 -148 5 -161 -2 -250 -18 -402 -73 -84 -31 -261 -121 -292 -149 -10
-8 -18 -12 -18 -9 0 9 -44 -27 -101 -83 -50 -50 -74 -95 -82 -155 -3 -22 -9
-48 -12 -57 -8 -20 -32 -31 -40 -18 -9 15 -52 12 -68 -4 -7 -8 -29 -16 -48
-19 -36 -5 -140 -57 -174 -87 -34 -30 -77 -47 -140 -55 -69 -9 -280 -10 -475
-2 -74 3 -145 2 -157 -3 -36 -14 -66 -85 -66 -156 0 -109 52 -191 223 -347 24
-22 104 -70 116 -70 7 0 10 -10 8 -25 -4 -22 -2 -24 23 -17 15 3 31 12 35 18
4 7 8 8 8 2 0 -5 5 -2 11 8 6 9 14 15 20 12 5 -4 9 -2 9 4 0 10 39 27 53 23 5
-1 5 2 2 8 -4 6 1 17 11 25 13 9 16 17 9 24 -7 7 -16 2 -29 -17 -19 -28 -106
-79 -106 -62 0 5 7 10 14 10 16 0 126 107 165 159 13 18 44 42 68 52 63 27 66
23 8 -10 -53 -30 -123 -115 -105 -126 6 -4 7 -12 3 -18 -3 -7 3 -3 15 7 25 21
31 36 7 16 -18 -15 -19 -1 -1 23 15 19 31 24 20 5 -5 -7 -3 -8 5 -4 7 5 10 14
7 21 -2 7 3 20 13 29 26 24 37 19 15 -6 -18 -20 -17 -20 14 2 36 27 40 32 15
23 -10 -4 -14 -2 -10 4 16 26 192 38 237 17 33 -16 85 -11 106 10 15 16 17 16
28 0 10 -14 33 -17 119 -19 93 -3 107 -1 112 14 3 10 11 18 18 18 6 0 22 3 35
7 18 6 22 4 22 -14 0 -18 -5 -21 -24 -18 -14 3 -31 1 -38 -3 -10 -7 -9 -9 4
-9 14 0 15 -5 7 -27 -6 -20 -27 -37 -67 -58 -32 -16 -89 -61 -129 -101 -90
-90 -127 -117 -167 -120 -17 -1 -38 -4 -46 -8 -29 -11 -276 -31 -367 -30 -35
1 -63 -2 -63 -6 0 -8 52 -34 63 -31 5 1 6 -3 2 -8 -3 -6 4 -28 15 -51 11 -22
18 -40 15 -40 -4 0 3 -13 15 -30 23 -32 19 -40 -7 -14 -9 8 -24 13 -35 11 -11
-3 -22 2 -29 14 -8 16 -18 19 -57 15 -26 -3 -48 -6 -49 -7 -2 -1 -7 -2 -12 -3
-5 0 -13 -4 -16 -8 -4 -4 23 -6 60 -5 48 1 70 -2 73 -11 3 -9 -4 -11 -20 -8
-14 2 -31 0 -39 -4 -8 -5 -19 -4 -26 2 -10 8 -13 7 -13 -3 0 -9 -3 -10 -8 -4
-9 12 -45 13 -53 2 -3 -5 -9 -1 -12 8 -4 9 -3 13 2 10 5 -3 12 -1 15 4 3 5 -1
11 -9 15 -8 3 -17 1 -21 -5 -4 -7 -10 -6 -19 1 -7 6 -16 7 -19 2 -7 -11 -52
-7 -49 5 1 5 -9 9 -22 9 -13 0 -22 -3 -20 -6 2 -4 -18 -8 -45 -9 -35 -1 -50 3
-50 11 0 9 -3 8 -10 -2 -5 -8 -10 -10 -10 -4 0 6 -25 11 -62 11 -35 1 -85 1
-113 2 -27 1 -62 0 -77 -2 -16 -2 -28 0 -28 6 0 6 -5 6 -12 0 -7 -5 -74 -9
-150 -8 -75 0 -134 -3 -132 -7 2 -4 -8 -4 -23 0 -16 4 -48 7 -73 6 -25 -1 -72
-2 -105 -4 -33 -1 -62 -1 -65 0 -21 7 -110 3 -110 -5 0 -5 -5 -3 -10 5 -7 11
-10 11 -10 2 0 -8 -5 -10 -12 -6 -21 13 -59 14 -51 1 5 -9 3 -9 -8 -1 -16 13
-99 14 -99 1 0 -4 -9 -3 -19 3 -13 6 -22 7 -26 0 -3 -5 -15 -6 -28 -1 -12 5
-31 5 -42 1 -11 -4 -33 -3 -48 3 -15 5 -36 7 -47 4 -11 -3 -20 0 -20 6 0 7 -4
6 -10 -3 -5 -8 -12 -11 -16 -7 -4 4 -14 1 -22 -6 -13 -10 -14 -9 -8 2 6 9 2 9
-15 -3 -43 -28 -55 -64 -55 -158 1 -49 -1 -88 -4 -88 -10 0 -5 -105 5 -112 7
-5 7 -8 0 -8 -5 0 -10 -18 -10 -40 0 -22 4 -40 8 -40 4 0 3 -8 -2 -18 -6 -11
-6 -24 0 -35 6 -10 6 -17 1 -17 -5 0 -6 -17 -2 -40 4 -23 3 -40 -2 -40 -5 0
-6 -4 -3 -10 3 -5 8 -72 11 -147 2 -76 7 -158 10 -183 8 -66 8 -144 0 -350 -4
-102 -7 -189 -6 -195 6 -51 6 -572 -1 -580 -4 -6 -6 -20 -4 -30 2 -11 4 -24 4
-28 1 -5 5 -6 9 -3 5 3 7 -22 5 -55 -3 -40 0 -66 9 -77 11 -13 11 -14 0 -8
-13 8 -14 2 -11 -114 0 -19 1 -72 2 -117 1 -44 5 -79 8 -77 6 3 5 -77 -1 -101
-1 -5 -2 -12 0 -15 8 -23 7 -60 -3 -60 -7 0 -6 -4 3 -10 8 -5 10 -10 4 -10
-11 0 -13 -37 -3 -55 4 -5 5 -32 5 -58 -1 -27 2 -51 6 -53 4 -3 5 2 2 10 -3 9
-2 16 3 16 5 0 9 -11 9 -25 0 -19 -3 -22 -13 -13 -7 6 -14 7 -15 2 -4 -22 -2
-124 2 -124 8 0 5 -44 -4 -58 -4 -7 -5 -16 -2 -20 2 -4 0 -14 -6 -22 -8 -12
-9 -12 -4 3 9 28 -2 20 -28 -22 -44 -69 -74 -95 -111 -95 -18 0 -31 -4 -29 -8
3 -4 -2 -8 -10 -8 -9 0 -23 15 -31 33 -12 25 -13 28 -1 14 20 -25 28 -9 31 64
5 85 13 115 46 164 33 48 35 55 16 55 -7 0 -41 -28 -74 -62 -33 -35 -80 -80
-102 -101 -47 -43 -67 -80 -70 -127 -1 -17 -4 -19 -18 -11 -29 16 -53 -13 -43
-51 5 -16 14 -36 20 -43 8 -10 8 -15 0 -20 -7 -4 -16 6 -23 24 -12 33 -24 39
-33 17 -5 -14 -40 -14 -70 1 -24 12 -63 11 -66 -2 -2 -5 11 -13 27 -17 17 -4
6 -5 -27 -2 -215 20 -341 -14 -441 -120 -51 -54 -107 -159 -126 -238 -33 -138
-1 -311 94 -503 62 -127 101 -178 156 -204 l39 -19 25 32 c14 18 25 36 25 39
0 3 5 18 12 34 11 28 14 42 16 100 2 22 14 44 43 75 54 56 79 113 80 182 1 31
-1 59 -3 62 -3 2 -17 0 -32 -6 -39 -15 -76 -20 -76 -11 0 9 77 31 108 31 18 0
19 -7 17 -72 -2 -87 -29 -155 -82 -210 -38 -39 -44 -72 -29 -153 7 -35 9 -37
18 -20 6 10 12 43 13 72 3 54 17 83 41 83 8 0 14 5 14 11 0 6 11 24 25 41 33
39 48 98 47 188 -2 105 -2 109 -14 116 -6 4 -8 2 -4 -4 3 -6 -7 -15 -26 -21
-80 -26 -197 -54 -235 -55 -37 -2 -43 0 -43 17 0 16 -3 17 -14 8 -10 -8 -16
-9 -21 -1 -3 5 -3 10 1 10 4 0 -1 9 -11 20 -42 47 -8 184 52 209 15 6 57 17
93 25 43 8 65 18 65 27 0 16 -62 20 -83 5 -9 -7 -16 -6 -21 3 -6 10 -10 9 -14
-3 -4 -9 -15 -16 -26 -16 -11 0 -23 -4 -26 -10 -3 -5 -14 -10 -23 -10 -13 1
-12 3 5 13 12 7 22 17 23 22 0 11 40 25 85 30 17 2 30 4 30 5 0 1 28 3 63 5
34 2 62 0 62 -4 0 -5 -11 -7 -25 -6 -14 2 -27 -1 -31 -6 -3 -5 4 -9 16 -9 12
0 29 -4 39 -9 10 -6 46 -12 80 -15 117 -10 156 -48 206 -205 28 -87 32 -133
20 -264 -5 -51 -2 -79 9 -108 9 -21 13 -39 11 -39 -3 0 -1 -9 5 -20 6 -11 16
-20 22 -20 7 0 7 4 1 12 -6 7 -9 38 -8 68 6 118 6 156 0 195 -3 22 -7 58 -10
80 -6 65 -43 186 -72 241 -13 26 -64 68 -83 69 -3 0 -9 3 -15 6 -5 4 -29 10
-53 14 -23 4 -40 11 -36 16 3 5 10 7 15 3 6 -3 25 -8 42 -11 42 -6 113 -48
133 -77 13 -21 50 -109 58 -141 1 -5 8 -28 14 -50 20 -72 23 -98 27 -242 6
-228 15 -271 78 -363 48 -70 218 -230 244 -230 5 0 10 -7 10 -15 0 -8 -3 -12
-7 -10 -8 5 -5 -61 5 -105 4 -17 10 -30 14 -30 4 0 7 -9 8 -20 1 -13 -2 -18
-10 -14 -9 5 -9 4 -1 -5 7 -8 9 -25 4 -46 -4 -19 -5 -37 -2 -40 10 -9 13 -48
6 -65 -10 -23 -12 -70 -2 -76 4 -3 3 -14 -2 -25 -8 -14 -7 -19 2 -19 8 0 9 -3
3 -8 -12 -8 -13 -131 -2 -149 4 -6 3 -14 -2 -18 -8 -5 2 -56 12 -61 1 0 -4 -8
-12 -17 -7 -10 -9 -17 -5 -17 11 0 10 -123 -1 -140 -5 -9 -4 -11 3 -6 7 4 12
2 12 -3 0 -6 -5 -11 -11 -11 -6 0 -7 -5 -2 -13 7 -12 10 -29 14 -94 1 -21 8
-33 16 -33 8 0 12 -4 9 -9 -3 -5 2 -12 12 -16 22 -10 362 -17 382 -8 23 10 34
10 47 1 6 -5 14 -5 18 2 4 7 12 7 25 0 13 -7 21 -7 25 0 5 8 11 8 20 0 10 -8
19 -8 36 0 16 9 20 9 14 1 -8 -13 91 -11 112 2 6 4 14 4 17 -1 4 -8 51 -14
109 -16 15 0 27 -3 27 -6 0 -7 37 -10 90 -8 19 0 51 0 70 0 160 -4 224 -1 238
10 9 7 13 8 9 2 -4 -7 15 -10 61 -7 37 2 73 3 80 3 56 0 107 6 122 15 8 5 11
4 7 -2 -4 -7 16 -10 58 -9 36 1 65 -1 65 -5 0 -4 14 -4 30 1 17 5 30 6 30 2 0
-4 13 -7 29 -7 16 0 27 4 24 8 -3 5 3 5 13 0 17 -8 39 -10 47 -3 8 7 74 6 84
-2 6 -5 14 -5 17 0 3 5 21 8 41 7 19 -2 35 2 35 7 0 5 6 6 12 2 7 -5 29 -7 48
-5 19 2 44 4 55 5 11 1 26 -2 33 -8 10 -7 16 -5 23 5 5 8 9 9 9 2 0 -8 19 -11
63 -8 36 1 68 -2 76 -9 12 -9 13 -8 6 3 -6 11 -2 13 19 9 14 -3 26 -1 26 4 0
5 5 6 10 3 6 -4 53 -7 105 -7 52 -1 95 -5 95 -10 0 -5 5 -6 12 -2 16 10 128
11 128 1 0 -4 8 -4 18 1 15 7 37 9 45 2 8 -7 38 -7 42 0 5 9 43 5 53 -4 2 -3
13 -1 23 5 13 7 19 6 19 -1 0 -6 5 -8 10 -5 6 4 7 11 4 17 -4 7 -2 8 4 4 20
-12 52 -15 52 -5 0 6 5 7 11 3 18 -11 69 -12 75 -2 3 5 15 1 27 -9 14 -12 18
-13 12 -3 -8 13 -7 13 8 1 9 -7 17 -10 17 -5 0 5 46 10 103 11 56 1 120 2 142
2 46 1 269 -6 273 -9 7 -5 112 -1 121 4 6 4 11 2 11 -5 0 -8 4 -8 15 1 8 7 15
8 15 3 0 -6 18 -7 45 -3 24 4 42 3 39 -1 -2 -4 8 -4 23 0 16 4 40 4 56 0 15
-4 27 -3 27 2 0 6 8 6 19 -1 13 -6 22 -7 26 0 3 5 15 6 28 1 14 -5 30 -5 40 0
10 6 17 6 17 1 0 -12 53 -10 62 3 5 6 8 6 8 -2 0 -11 7 -11 45 -3 6 1 12 1 15
0 3 -2 44 -4 93 -5 64 -2 85 0 80 8 -4 7 1 6 10 -2 14 -11 20 -11 32 -1 12 10
15 10 15 0 0 -9 4 -9 13 -2 7 6 25 9 40 8 15 -2 38 3 52 10 14 7 23 10 21 5
-3 -4 1 -8 9 -8 8 0 12 4 9 9 -3 4 18 8 45 8 28 0 51 -4 51 -10 0 -5 5 -10 11
-10 5 0 8 4 5 8 -3 5 1 9 9 9 8 0 12 -4 10 -8 -3 -3 32 -7 78 -7 45 1 92 -2
104 -6 12 -4 24 -2 28 4 3 6 11 7 17 3 20 -11 377 -11 372 1 -3 6 2 2 10 -8 9
-11 16 -14 16 -8 0 8 9 10 28 6 15 -3 32 -5 37 -5 6 0 34 2 63 4 28 3 52 1 52
-3 0 -4 16 -4 35 0 19 4 37 4 40 0 3 -5 18 -5 33 -1 15 4 34 7 42 7 25 -1 63
41 57 64 -3 11 -2 22 3 25 4 2 7 54 7 115 0 61 3 113 5 116 3 2 8 -18 12 -46
4 -33 11 -50 19 -47 14 4 28 77 15 77 -4 0 -8 8 -9 18 0 9 -13 44 -29 77 -31
65 -24 101 10 55 38 -50 63 -158 64 -270 0 -94 -2 -121 -18 -197 -17 -80 -138
-191 -227 -208 -13 -3 -33 -9 -44 -14 -19 -9 -125 -38 -166 -46 -11 -2 -54
-14 -97 -25 -42 -12 -88 -23 -102 -25 -53 -9 -237 -68 -285 -92 -98 -50 -183
-111 -213 -155 -35 -51 -72 -130 -78 -167 -3 -14 -10 -42 -16 -61 -18 -55 -15
-196 6 -275 2 -5 6 -23 11 -40 20 -74 92 -168 156 -200 43 -23 107 -45 147
-51 18 -3 48 -12 67 -20 19 -8 35 -12 35 -8 0 3 12 -3 28 -14 22 -16 32 -17
54 -8 32 13 28 21 -31 63 -40 29 -70 36 -56 12 4 -5 1 -9 -6 -9 -10 0 -9 26 4
77 5 20 8 21 77 27 36 3 77 8 93 11 15 3 37 7 50 9 41 7 129 45 167 71 66 46
118 118 127 178 3 18 6 33 8 35 9 9 -53 132 -67 132 -14 0 -83 52 -83 63 0 6
-12 14 -26 18 -27 7 -150 2 -158 -7 -3 -2 3 -18 12 -33 9 -16 17 -38 17 -48 0
-18 17 -43 31 -43 10 0 -9 103 -22 110 -16 11 45 18 67 8 18 -7 18 -8 -1 -7
-42 2 -43 1 -30 -38 7 -20 11 -44 10 -52 -2 -9 -4 -24 -4 -33 -1 -10 -6 -18
-12 -18 -5 0 -7 5 -4 10 3 6 2 10 -3 10 -6 0 -13 -12 -16 -26 -8 -31 -50 -74
-86 -90 -14 -6 -42 -11 -63 -10 -20 1 -37 -3 -37 -7 0 -11 68 -6 101 8 32 13
89 60 89 74 0 5 4 13 10 16 23 14 8 -25 -23 -58 -39 -43 -74 -59 -146 -64 -55
-5 -131 12 -131 29 0 5 -4 7 -8 4 -5 -3 -20 7 -35 22 -124 131 -91 365 66 473
56 38 131 75 169 83 90 18 142 26 202 31 127 9 261 33 311 54 165 70 258 134
333 228 65 81 100 156 116 245 17 98 14 173 -9 278 -3 14 -8 36 -11 50 -3 14
-11 45 -19 70 -7 25 -21 74 -31 110 -36 131 -78 189 -220 302 -43 34 -73 66
-75 80 -7 39 -2 625 5 637 4 6 4 11 -1 11 -4 0 -8 73 -8 161 0 122 -3 163 -13
166 -9 4 -10 9 -1 19 9 11 8 14 -1 14 -9 0 -9 6 2 23 9 15 14 51 13 109 0 49
2 88 5 88 3 0 5 29 5 65 0 36 -3 65 -7 65 -4 0 -4 10 1 23 5 13 5 30 0 39 -6
11 -5 19 1 23 6 4 7 12 3 18 -8 14 -11 107 -2 101 3 -1 6 10 6 26 0 17 -4 30
-8 30 -5 0 -4 11 1 25 6 15 6 25 0 25 -5 0 -5 12 0 30 5 19 5 30 -1 30 -6 0
-6 7 1 19 6 13 7 28 1 45 -7 17 -7 26 2 29 9 3 9 8 -1 19 -7 9 -9 18 -5 21 11
7 9 98 -1 116 -6 8 -5 12 0 8 12 -7 12 233 0 252 -6 10 -6 12 2 7 7 -4 12 -3
12 3 0 5 -4 12 -9 15 -4 3 -7 18 -5 33 10 74 12 155 4 182 -5 20 -5 31 1 31 6
0 7 5 3 12 -10 16 -11 208 -1 208 5 0 5 5 2 10 -8 13 -12 170 -5 170 3 0 3 36
0 80 -3 44 -1 80 3 80 4 0 3 9 -3 19 -6 13 -7 22 0 26 5 3 7 12 4 20 -10 26
-10 555 1 555 5 0 5 4 -1 10 -6 6 -7 35 -4 70 3 33 2 60 -2 60 -5 0 -5 8 0 18
4 9 7 69 5 132 -5 195 -5 233 0 287 2 29 2 55 -1 58 -7 7 -8 155 0 155 3 0 4
10 1 21 -6 21 -6 21 -18 -2 -12 -21 -13 -19 -16 30 -2 29 -1 55 2 57 4 2 -5
89 -9 89 -1 0 -3 7 -7 16 -4 12 -22 17 -68 18 -33 1 -63 4 -65 6 -3 2 -13 0
-23 -6 -13 -7 -19 -6 -19 1 0 7 -6 8 -18 1 -13 -7 -22 -7 -29 0 -8 8 -13 7
-17 0 -5 -7 -14 -8 -24 -2 -17 8 -49 7 -59 -3 -3 -2 -16 -1 -29 4 -15 6 -24 6
-24 0 0 -6 -9 -6 -23 -1 -14 6 -30 5 -42 -2 -14 -7 -20 -7 -23 1 -2 7 -11 8
-26 2 -12 -4 -29 -4 -38 1 -10 6 -19 6 -22 0 -4 -6 -18 -6 -36 -1 -20 6 -30 5
-30 -2 0 -7 -5 -6 -14 1 -10 9 -16 9 -21 1 -5 -7 -11 -8 -19 -1 -7 6 -17 6
-26 1 -9 -5 -19 -5 -27 2 -10 8 -13 7 -13 -3 0 -11 -2 -11 -10 1 -7 11 -10 11
-10 2 0 -10 -5 -10 -20 -2 -15 8 -20 8 -20 -2 0 -9 -3 -9 -10 2 -8 12 -10 12
-10 1 0 -10 -3 -11 -14 -2 -10 9 -16 9 -21 1 -5 -8 -10 -8 -20 0 -9 8 -15 8
-20 0 -3 -6 -11 -7 -17 -4 -14 9 -68 11 -68 3 0 -3 -7 -6 -15 -6 -8 0 -15 4
-15 9 0 5 -4 7 -9 4 -5 -4 -12 0 -14 6 -3 7 -6 4 -6 -6 -1 -20 -1 -20 -16 0
-14 18 -15 18 -9 0 6 -15 4 -17 -12 -9 -22 11 -34 11 -51 0 -8 -5 -13 -3 -13
4 0 9 -3 9 -14 0 -10 -8 -16 -9 -21 -1 -4 7 -12 7 -26 0 -13 -8 -19 -7 -19 0
0 6 -5 8 -12 3 -16 -9 -34 -10 -76 -2 -17 4 -34 3 -37 -1 -3 -4 -21 -4 -40 0
-20 5 -38 4 -41 -2 -3 -5 -11 -4 -20 3 -11 9 -14 8 -14 -2 0 -9 -3 -10 -8 -4
-11 16 -65 12 -94 -7 l-26 -17 15 30 c8 16 16 36 17 44 1 8 5 18 9 21 10 11 9
79 -3 108 -7 20 -6 24 5 19 14 -5 20 -27 17 -65 -2 -21 21 -40 40 -33 21 8 16
33 -15 86 -15 25 -27 49 -27 53 0 16 -88 114 -148 166 -91 77 -112 100 -112
121 0 18 15 23 58 22 6 -1 12 5 12 13 0 12 19 19 42 15 4 0 45 -3 90 -5 102
-6 198 -16 218 -23 8 -3 33 -7 55 -9 95 -9 111 -18 140 -78 24 -49 35 -84 37
-113 1 -7 5 -13 10 -13 5 0 6 -4 3 -10 -6 -10 13 -55 21 -48 2 2 -1 22 -7 44
-6 21 -10 39 -9 39 1 0 -3 12 -9 28 -6 15 -7 27 -2 27 7 0 76 -245 74 -260 -1
-3 3 -13 8 -22 6 -12 6 -18 0 -18 -10 0 -17 18 -26 66 -2 10 -4 21 -5 24 -1 3
-2 9 -1 13 1 5 -2 6 -7 3 -5 -3 1 -41 11 -85 11 -44 24 -78 29 -75 4 3 3 14
-2 25 -7 13 -7 19 0 19 5 0 10 -4 10 -9 0 -5 10 -13 22 -17 37 -11 564 -20
780 -13 l107 4 -4 45 c-4 40 -10 74 -19 105 -2 6 -7 24 -11 40 -15 56 -94 216
-142 288 -55 82 -226 260 -293 303 -25 16 -47 31 -50 34 -17 20 -227 129 -234
123 -3 -4 -6 -1 -6 5 0 7 -9 12 -19 12 -11 0 -22 4 -25 9 -3 5 -45 21 -93 36
-49 15 -94 32 -100 38 -7 5 -13 7 -13 4 0 -3 -15 -1 -32 5 -41 12 -105 28
-138 34 -14 2 -45 8 -70 13 -25 5 -65 12 -90 16 -25 3 -52 8 -60 10 -8 2 -34
6 -57 9 -171 23 -193 29 -193 57 0 10 4 19 9 19 5 0 36 22 68 50 32 27 81 61
108 74 53 27 155 56 192 56 12 0 25 5 29 11 4 8 9 8 13 1 3 -6 27 -13 51 -16
25 -3 61 -10 80 -16 19 -5 36 -10 38 -10 1 0 -2 8 -7 19 -6 10 -34 29 -63 41
-52 23 -93 26 -190 14 -21 -2 -38 -1 -38 4 0 7 42 13 108 15 12 1 22 4 22 7 0
8 -112 40 -145 41 -17 0 -24 3 -17 6 6 2 12 9 12 14 0 5 -10 4 -22 -3 -13 -7
-34 -14 -48 -15 -14 -2 -39 -8 -56 -14 -17 -5 -41 -11 -53 -14 -11 -2 -25 -6
-30 -10 -19 -11 -23 17 -5 30 28 21 0 18 -46 -4 -22 -11 -40 -15 -40 -11 0 5
8 11 19 15 43 13 111 98 111 138 0 22 -36 23 -44 1 -4 -9 -9 -14 -13 -11 -3 4
0 14 7 23 11 12 11 17 1 23 -7 5 -13 22 -15 39 -3 45 -10 46 -37 8z m276 -286
c-3 -5 -10 -10 -16 -10 -5 0 -9 5 -9 10 0 6 7 10 16 10 8 0 12 -4 9 -10z m-40
-9 c-6 -5 -34 -19 -64 -30 -30 -11 -50 -16 -45 -11 5 5 32 18 59 28 61 24 61
24 50 13z m-998 -367 c102 -66 50 -224 -74 -224 -34 0 -88 31 -103 61 -17 30
-19 90 -6 114 16 29 57 64 81 68 31 6 78 -2 102 -19z m-843 -525 c3 -3 -8 -6
-24 -7 -17 -1 -30 1 -30 6 0 8 46 9 54 1z m153 -1 c-15 -10 -56 -9 -82 2 -13
5 -1 7 37 7 31 -1 51 -5 45 -9z m1468 3 c-3 -5 -1 -12 5 -16 5 -3 10 -11 10
-16 0 -6 -5 -7 -12 -3 -7 4 -28 7 -48 6 l-35 -2 24 20 c23 20 67 28 56 11z
m-1758 -7 c-3 -3 -12 -4 -19 -1 -8 3 -5 6 6 6 11 1 17 -2 13 -5z m66 -1 c-7
-2 -19 -2 -25 0 -7 3 -2 5 12 5 14 0 19 -2 13 -5z m2120 -20 c-7 -2 -19 -2
-25 0 -7 3 -2 5 12 5 14 0 19 -2 13 -5z m133 -29 c31 -13 64 -44 48 -44 -5 0
-4 -4 2 -8 6 -4 14 -20 18 -37 6 -28 5 -29 -9 -11 -8 10 -12 23 -9 27 3 5 1 9
-4 9 -5 0 -12 9 -15 20 -3 10 -20 26 -38 34 -92 39 -87 36 -54 29 17 -3 44
-12 61 -19z m-2027 -191 c-107 -113 -131 -133 -183 -147 -86 -24 -106 -27
-106 -16 0 5 8 10 18 11 44 2 132 28 132 39 0 6 5 10 11 10 6 0 45 34 86 75
81 82 112 103 42 28z m1566 7 c3 -6 -1 -7 -9 -4 -18 7 -21 14 -7 14 6 0 13 -4
16 -10z m56 -57 c42 -44 65 -83 49 -83 -5 0 -10 6 -10 13 0 7 -20 34 -45 60
-25 26 -42 47 -37 47 4 0 24 -17 43 -37z m-404 -19 c51 -9 95 -20 99 -25 3 -5
13 -9 22 -9 31 0 123 -54 145 -84 22 -31 33 -121 16 -131 -5 -4 -9 5 -9 19 0
14 -4 28 -10 31 -5 3 -10 17 -10 30 0 29 -47 70 -120 103 -30 14 -59 26 -65
27 -5 0 -35 6 -65 13 -89 20 -96 21 -110 12 -8 -5 16 -12 61 -20 87 -14 150
-30 164 -42 5 -4 15 -8 22 -8 29 0 82 -45 82 -70 1 -14 1 -38 2 -55 2 -49 0
-54 -33 -86 -50 -48 -179 -102 -192 -80 -3 4 7 8 22 9 14 1 36 9 49 17 13 9
23 12 23 9 0 -4 8 0 18 8 9 8 25 18 34 21 9 3 22 15 28 27 10 20 10 21 -8 11
-23 -12 -36 -3 -21 16 7 8 8 13 1 13 -5 0 -13 -7 -16 -16 -5 -12 -14 -15 -38
-10 -19 4 -37 1 -46 -6 -13 -10 -14 -10 -8 0 9 15 -6 16 -21 1 -7 -7 -15 -6
-26 5 -17 18 -32 21 -22 6 3 -5 1 -11 -4 -11 -6 -1 -17 -2 -23 -3 -7 -1 -25 1
-40 5 -15 4 -30 3 -33 -2 -4 -5 -13 -5 -24 1 -10 5 -21 7 -24 4 -9 -10 -41
-11 -69 -3 -15 4 -30 4 -33 0 -2 -5 -23 -5 -45 -1 -27 5 -40 4 -41 -4 0 -8 -2
-8 -5 0 -3 8 -16 9 -40 4 -25 -6 -37 -5 -40 4 -2 6 -14 12 -25 13 -20 2 -20 1
-4 -11 15 -11 14 -12 -8 -12 -14 0 -23 4 -21 8 3 4 1 8 -5 8 -5 0 -13 -5 -16
-10 -5 -8 -11 -8 -20 0 -10 8 -15 8 -20 0 -5 -8 -11 -8 -21 1 -11 9 -14 8 -15
-2 0 -10 -2 -10 -5 -2 -4 8 -13 9 -28 3 -12 -4 -29 -4 -38 1 -10 6 -19 6 -22
0 -8 -13 -80 7 -104 29 -14 13 -36 19 -73 19 -61 1 -162 11 -168 17 -3 3 1 10
7 16 8 8 12 9 12 1 0 -13 37 -5 47 10 3 6 1 7 -5 3 -7 -4 -12 -3 -12 2 0 5 11
15 25 22 14 7 23 15 22 17 -6 6 -67 -28 -67 -37 0 -5 -6 -7 -13 -4 -8 3 -20
-2 -27 -11 -13 -16 -40 -21 -40 -6 0 30 100 80 218 108 39 9 47 12 50 12 1 1
4 1 7 1 3 1 23 7 45 15 22 8 43 14 45 14 3 0 18 2 33 5 15 3 39 8 55 10 15 3
53 10 85 15 31 6 76 13 99 15 22 2 46 7 52 10 6 4 11 3 11 -3 0 -7 8 -7 23 -2
12 4 49 9 82 10 33 2 61 4 62 5 7 7 149 -6 230 -20z m-1517 -94 c0 -5 -30 -11
-67 -15 -38 -3 -78 -8 -90 -11 -13 -2 -23 -1 -23 4 0 5 6 9 13 9 25 1 120 13
123 16 7 7 44 5 44 -3z m-197 -27 c-7 -2 -21 -2 -30 0 -10 3 -4 5 12 5 17 0
24 -2 18 -5z m-707 -134 c7 -11 1 -12 -121 -15 -55 -1 -124 -4 -153 -6 -28 -1
-52 1 -52 5 0 4 -9 3 -20 -3 -15 -8 -20 -8 -20 3 0 9 14 14 43 15 69 3 232 14
234 16 6 5 84 -8 89 -15z m-418 -1 c23 0 42 -5 42 -10 0 -5 -4 -6 -10 -3 -5 3
-10 2 -10 -3 0 -6 -14 -7 -34 -2 -19 4 -38 5 -41 2 -8 -8 -45 -10 -45 -2 0 9
-83 6 -99 -4 -10 -6 -12 -5 -7 2 4 7 3 12 -3 12 -5 0 -12 -4 -15 -9 -4 -5 -14
-8 -24 -6 -9 2 -28 4 -42 5 -24 2 -24 2 5 11 16 5 47 7 68 6 21 -2 40 -1 42 2
2 3 32 4 67 3 34 -2 82 -4 106 -4z m-318 -18 c0 -5 -2 -10 -4 -10 -3 0 -8 5
-11 10 -3 6 -1 10 4 10 6 0 11 -4 11 -10z m1100 4 c0 -8 -19 -13 -24 -6 -3 5
1 9 9 9 8 0 15 -2 15 -3z m2331 -11 c-12 -22 -57 -64 -94 -87 -47 -29 -41 -12
8 23 25 18 53 44 61 57 19 28 40 33 25 7z m-1065 -24 c4 -8 9 -7 16 2 8 11 9
11 5 -1 -2 -8 -11 -14 -21 -12 -9 2 -16 -1 -16 -6 0 -5 -6 -9 -14 -9 -8 0 -14
9 -13 19 1 20 32 25 43 7z m-2946 -69 c0 -5 -5 -10 -11 -10 -5 0 -7 5 -4 10 3
6 8 10 11 10 2 0 4 -4 4 -10z m3870 -5 c0 -2 -10 -9 -22 -15 -22 -11 -22 -10
-4 4 21 17 26 19 26 11z m-255 -33 c-3 -3 -11 0 -18 7 -9 10 -8 11 6 5 10 -3
15 -9 12 -12z m195 -2 c-8 -5 -18 -6 -24 -3 -5 4 -1 10 10 13 24 9 34 2 14
-10z m421 -85 c6 -4 15 -1 20 6 7 11 9 10 9 -3 0 -10 4 -18 10 -18 5 0 9 -25
9 -55 -1 -31 4 -61 10 -69 6 -7 8 -16 4 -20 -4 -4 -8 -24 -10 -44 -1 -20 -4
-64 -6 -97 -5 -68 7 -116 29 -108 8 3 14 1 14 -4 0 -12 46 -34 54 -26 3 3 20
7 38 9 61 5 101 13 107 21 3 5 17 10 30 11 13 2 30 9 37 15 7 7 26 23 44 36
17 13 29 30 26 38 -3 8 2 13 15 13 11 0 17 5 14 10 -3 6 -1 10 5 10 6 0 8 5 5
10 -3 6 -1 10 6 10 7 0 9 3 6 7 -4 3 6 17 21 31 15 14 26 30 24 34 -1 4 4 8
12 8 8 0 16 3 18 8 6 14 76 61 82 55 3 -4 6 -1 6 6 0 7 5 9 10 6 6 -3 10 0 10
7 0 8 3 9 8 3 10 -13 32 -17 32 -6 0 10 15 9 73 -7 25 -7 39 -7 48 2 8 7 10 7
6 0 -4 -6 2 -20 12 -31 24 -25 36 -64 23 -72 -5 -3 -12 -15 -14 -26 -1 -10
-10 -26 -18 -35 -8 -9 -26 -29 -40 -46 -14 -16 -44 -46 -68 -67 -23 -20 -40
-37 -37 -37 14 0 -39 -42 -55 -43 -10 -1 -17 -4 -14 -8 8 -14 -17 -21 -31 -9
-10 8 -15 8 -21 -1 -4 -8 -3 -9 4 -5 7 4 12 2 12 -3 0 -6 -3 -12 -7 -12 -5 -1
-23 -3 -42 -5 -19 -2 -38 -9 -42 -15 -4 -7 -12 -8 -18 -5 -6 4 -11 2 -11 -3 0
-6 -3 -10 -7 -9 -5 1 -42 -6 -83 -17 -41 -11 -79 -18 -83 -17 -5 1 -6 -2 -3
-7 3 -5 -2 -15 -11 -22 -10 -8 -14 -9 -10 -2 12 20 -13 26 -33 8 -10 -9 -35
-17 -54 -17 -20 0 -39 -4 -42 -9 -3 -5 -9 -7 -14 -4 -5 3 -16 -5 -24 -17 -9
-12 -16 -19 -16 -14 0 5 -6 3 -14 -3 -11 -9 -15 -9 -18 1 -3 8 -7 6 -11 -6 -4
-10 -3 -15 3 -11 6 3 10 -3 10 -14 0 -12 -5 -21 -11 -21 -5 0 -7 5 -4 10 3 6
1 10 -4 10 -6 0 -10 -15 -9 -32 1 -18 -1 -45 -5 -60 -3 -16 -1 -28 4 -28 5 0
9 -7 9 -15 0 -9 6 -12 18 -8 15 5 14 4 -2 -9 -10 -8 -16 -19 -13 -25 5 -9 -19
-39 -58 -71 -16 -14 -86 -19 -104 -8 -6 4 -11 2 -11 -5 0 -6 -9 -1 -20 12 -10
13 -19 20 -20 15 0 -14 -50 47 -50 62 0 6 -4 12 -8 12 -5 0 -9 7 -9 15 0 8 4
15 9 15 5 0 6 5 2 12 -4 7 -9 39 -12 73 -2 33 -10 67 -18 76 -7 8 -42 23 -76
33 -35 9 -71 22 -80 27 -10 5 -18 6 -18 2 0 -5 -21 -9 -47 -11 -25 -1 -52 -7
-60 -13 -7 -6 -13 -8 -13 -3 0 5 -19 9 -42 9 -24 0 -49 4 -57 10 -12 8 -13 6
-8 -8 6 -16 4 -16 -26 -4 -18 8 -42 12 -55 11 -15 -3 -22 1 -22 12 0 10 -6 14
-15 11 -8 -4 -17 -2 -20 2 -3 5 -18 8 -35 7 -16 -1 -30 2 -30 6 0 5 -11 6 -25
4 -14 -3 -25 -1 -25 4 0 5 -6 7 -14 4 -8 -3 -17 -1 -20 5 -4 5 -27 13 -51 17
-25 3 -48 11 -52 17 -4 6 -1 7 7 2 9 -6 11 -4 5 4 -4 7 -16 11 -26 8 -11 -3
-17 -1 -13 4 3 5 -2 9 -10 9 -17 0 -102 80 -98 93 4 12 -24 37 -34 29 -5 -4
-2 1 5 11 12 15 11 20 -4 37 -10 11 -18 31 -17 45 0 14 -4 25 -8 25 -16 0 -3
30 23 54 15 14 27 22 27 18 0 -4 4 -1 9 7 11 17 28 22 91 26 25 2 63 6 84 10
28 6 37 5 32 -4 -4 -6 -1 -11 8 -11 10 0 13 -6 10 -15 -4 -8 -1 -15 5 -15 6 0
11 -4 11 -10 0 -11 74 -90 84 -90 3 0 21 -15 40 -34 20 -18 55 -40 80 -47 25
-7 42 -17 40 -21 -3 -4 4 -8 15 -8 11 0 23 -5 26 -11 4 -5 17 -9 28 -7 12 1
28 -1 35 -6 7 -4 28 -10 45 -13 18 -3 37 -6 42 -7 6 -1 16 -5 23 -9 6 -5 12
-4 12 1 0 4 15 8 34 8 19 0 34 -3 33 -6 -3 -9 17 -7 44 4 27 11 29 14 29 42 0
8 3 13 8 11 4 -3 7 17 7 44 0 33 -4 49 -12 49 -7 0 -13 5 -13 11 0 5 6 7 13 3
9 -6 9 -5 0 7 -13 16 -12 153 0 166 4 3 7 13 7 22 0 21 40 61 62 61 11 0 17 4
14 9 -4 5 2 7 12 5 9 -3 28 -1 42 4 28 10 183 8 201 -3z m-2647 -37 c-5 -8 0
-7 11 2 11 9 16 10 11 3 -5 -9 0 -13 16 -14 67 -3 91 -8 130 -22 37 -15 43
-21 45 -49 4 -48 8 -64 19 -79 9 -14 10 -107 1 -161 -2 -16 -1 -28 3 -28 4 0
4 -16 0 -36 -5 -21 -4 -47 1 -61 8 -22 11 -23 26 -12 14 12 15 12 9 1 -11 -19
73 -10 134 13 25 9 59 18 75 20 17 2 31 4 33 5 3 3 18 7 33 9 5 0 7 7 3 14 -4
6 -4 9 0 5 10 -9 69 22 107 56 16 15 29 24 29 20 0 -3 12 9 27 28 16 18 33 39
40 46 6 7 10 21 8 32 -2 11 0 18 5 15 10 -6 24 13 25 36 1 9 10 25 21 36 22
23 99 65 106 57 3 -2 21 -6 39 -7 39 -3 99 -36 99 -54 0 -7 4 -13 10 -13 5 0
7 -7 4 -15 -4 -8 1 -17 10 -21 9 -3 13 -11 9 -18 -4 -6 -9 -20 -10 -30 -2 -11
-9 -26 -16 -35 -10 -12 -9 -13 1 -7 11 7 11 4 1 -12 -7 -12 -16 -19 -20 -16
-4 2 -6 -3 -5 -13 2 -9 -12 -30 -31 -47 -18 -17 -33 -37 -33 -44 0 -7 -4 -11
-9 -8 -4 3 -18 -2 -29 -12 -11 -9 -35 -28 -52 -42 -18 -14 -38 -31 -45 -37 -8
-7 -21 -13 -29 -13 -9 0 -16 -4 -16 -10 0 -5 -7 -7 -15 -4 -8 4 -17 -1 -21
-10 -3 -9 -10 -16 -16 -16 -5 0 -6 5 -2 11 4 8 0 8 -15 0 -11 -7 -21 -8 -21
-4 0 4 -5 1 -10 -7 -5 -8 -13 -15 -17 -16 -4 0 -25 -8 -46 -18 -21 -9 -51 -19
-67 -23 -16 -3 -27 -9 -25 -13 3 -5 -3 -6 -13 -3 -11 2 -25 -1 -33 -9 -16 -15
-24 -17 -79 -21 -24 -2 -40 1 -40 7 0 8 -2 8 -8 0 -10 -15 -42 -25 -42 -13 0
6 -8 5 -21 -2 -12 -6 -19 -7 -16 -2 4 5 0 10 -8 10 -8 0 -12 -4 -9 -9 3 -4 0
-8 -6 -8 -6 0 -8 -4 -5 -10 3 -6 -1 -7 -9 -4 -9 3 -16 2 -16 -4 0 -5 -10 -7
-22 -5 -13 2 -31 -2 -42 -10 -16 -12 -19 -28 -20 -106 -1 -67 -5 -94 -15 -100
-8 -5 -11 -16 -8 -25 5 -13 3 -15 -11 -7 -9 4 -26 5 -37 0 -32 -12 -150 -10
-163 3 -7 7 -12 8 -12 3 0 -4 -9 0 -20 10 -11 10 -17 22 -14 26 3 5 1 9 -3 9
-5 0 -9 30 -9 68 0 88 -11 155 -25 146 -6 -3 -16 0 -22 8 -14 17 -71 43 -62
28 3 -5 2 -10 -4 -10 -5 0 -13 5 -16 10 -4 7 -13 7 -26 0 -14 -8 -19 -7 -19 1
0 7 -8 9 -22 4 -41 -12 -63 -13 -77 -1 -12 9 -13 7 -8 -8 6 -14 4 -16 -5 -9
-7 6 -22 9 -32 7 -11 -1 -28 2 -38 7 -12 6 -18 6 -18 -1 0 -12 -22 -9 -32 4
-4 6 -14 4 -24 -5 -14 -11 -16 -11 -10 0 6 9 5 12 -5 9 -8 -3 -24 -1 -36 3
-15 6 -23 5 -23 -3 0 -6 -9 -3 -20 7 -12 10 -37 18 -60 19 -22 0 -40 3 -40 6
0 3 -12 7 -27 8 -16 1 -33 9 -39 17 -6 8 -14 15 -19 15 -4 0 -18 9 -32 20 -14
11 -29 17 -34 14 -5 -3 -9 1 -9 9 0 8 -9 22 -20 32 -11 10 -20 24 -20 32 0 9
-6 12 -18 9 -11 -4 -23 2 -32 16 -8 12 -25 32 -36 44 -12 13 -19 25 -16 28 3
3 -1 6 -8 6 -7 0 -10 3 -7 7 4 3 2 12 -3 19 -6 6 -9 18 -8 25 3 16 28 43 40
45 4 1 9 2 11 3 1 2 13 4 27 7 14 2 40 11 58 20 18 8 42 17 53 19 11 2 29 7
40 10 11 4 19 2 19 -5 0 -15 61 -70 72 -64 7 5 12 -18 9 -38 0 -5 4 -8 10 -8
5 0 8 -4 5 -9 -7 -11 18 -33 27 -25 3 4 9 -5 13 -20 4 -17 13 -26 25 -26 10 0
19 -7 19 -15 0 -8 12 -17 28 -20 15 -4 35 -10 44 -16 24 -12 31 -11 22 4 -6 9
-5 9 7 0 9 -7 30 -13 47 -15 18 -1 32 -7 32 -12 0 -5 3 -7 6 -4 3 4 19 2 35
-2 18 -5 29 -5 29 1 0 6 6 7 13 2 20 -13 41 -13 49 0 6 9 8 8 8 -2 0 -7 6 -11
15 -8 8 4 17 2 20 -3 4 -7 26 -7 45 0 3 1 9 2 13 1 17 -3 67 30 67 44 0 8 5
15 10 15 21 0 51 37 44 53 -3 9 -10 14 -15 12 -5 -3 -7 31 -6 76 1 57 -2 84
-10 86 -7 2 -9 11 -6 20 5 12 3 14 -8 8 -12 -7 -12 -6 -1 7 9 11 9 18 3 23 -7
4 -7 13 2 28 17 30 36 44 77 58 19 7 41 18 48 26 8 7 18 11 23 7 5 -3 9 -2 8
3 -3 15 1 23 12 23 5 0 7 -6 3 -12z m-159 -218 c3 -5 -1 -10 -10 -10 -9 0 -13
5 -10 10 3 6 8 10 10 10 2 0 7 -4 10 -10z m-1430 -235 c-1 -68 -3 -127 -6
-130 -3 -3 -11 6 -17 20 -6 13 -8 27 -3 29 5 3 9 38 10 78 1 40 4 82 6 93 2
11 4 23 4 28 1 4 2 7 4 7 1 0 2 -56 2 -125z m425 -105 c0 -5 -5 -10 -11 -10
-5 0 -7 5 -4 10 3 6 8 10 11 10 2 0 4 -4 4 -10z m1337 -282 c-3 -7 -5 -2 -5
12 0 14 2 19 5 13 2 -7 2 -19 0 -25z m2473 -78 c0 -5 -2 -10 -4 -10 -3 0 -8 5
-11 10 -3 6 -1 10 4 10 6 0 11 -4 11 -10z m-3366 -32 c3 3 6 0 6 -7 0 -7 6
-11 14 -8 8 3 16 1 18 -4 2 -6 19 -12 38 -15 19 -4 37 -9 40 -12 3 -4 11 -7
18 -8 29 -2 33 -5 26 -16 -5 -8 0 -9 14 -6 15 4 22 2 22 -8 0 -12 4 -12 20 -4
11 6 20 7 20 2 0 -9 99 -39 113 -34 4 1 7 -3 7 -9 0 -6 9 -9 20 -6 11 3 20 2
20 -2 0 -4 6 -8 13 -9 6 0 36 -2 65 -5 29 -2 55 0 58 5 3 5 13 3 22 -4 12 -10
14 -10 8 0 -6 11 11 17 37 13 4 -1 16 3 26 8 12 7 22 6 30 -2 9 -9 14 -9 20 2
6 9 11 10 15 2 4 -6 12 -8 18 -5 6 4 34 9 62 11 46 3 91 9 91 13 0 1 23 3 50
6 54 4 110 12 110 14 0 1 25 3 56 4 31 2 61 6 67 10 6 3 13 2 17 -4 4 -6 10
-8 15 -5 14 9 194 10 208 1 7 -4 12 -2 12 5 0 7 4 8 13 2 6 -5 19 -9 27 -8 8
1 23 -3 33 -7 10 -5 25 -5 35 1 13 7 23 6 30 -1 7 -7 12 -8 12 -3 0 4 8 0 19
-9 10 -9 28 -18 39 -19 11 0 18 -5 16 -9 -3 -4 3 -8 14 -8 10 0 48 -19 83 -42
35 -23 67 -41 72 -40 4 1 7 -5 7 -13 0 -14 12 -20 33 -16 5 1 6 -2 3 -7 -3 -4
11 -26 30 -47 19 -21 34 -45 34 -52 0 -8 3 -12 8 -10 4 3 7 -21 7 -54 0 -32
-4 -59 -9 -59 -4 0 -6 -11 -3 -25 2 -14 2 -23 -1 -21 -4 5 -33 -23 -50 -49
-10 -15 -70 -55 -82 -55 -6 0 -13 -6 -16 -13 -3 -8 -10 -14 -17 -15 -18 -1
-38 -7 -70 -20 -16 -7 -34 -12 -41 -12 -7 0 -16 -3 -20 -7 -4 -4 -17 -8 -29
-9 -12 -1 -33 -5 -47 -8 -14 -4 -38 -9 -55 -12 -16 -3 -32 -9 -35 -13 -3 -4
-39 -8 -80 -8 -62 0 -125 -7 -125 -13 0 -1 -13 -3 -30 -5 -156 -17 -225 -52
-225 -114 0 -34 28 -73 58 -78 9 -2 46 -3 82 -2 243 4 389 -1 396 -13 3 -5 14
-3 26 3 16 9 19 8 13 -2 -6 -9 -4 -11 7 -6 9 3 19 3 23 -1 3 -3 14 -7 23 -7
34 -2 102 -18 102 -24 0 -4 11 -8 24 -9 25 -2 131 -54 157 -78 9 -8 19 -11 22
-7 4 3 7 -1 7 -11 0 -9 4 -15 9 -12 5 3 12 -1 15 -10 3 -9 11 -12 18 -8 7 4
10 4 6 -1 -4 -4 8 -26 27 -48 19 -22 35 -45 35 -49 0 -5 6 -6 13 -2 6 4 9 4 5
-1 -9 -10 13 -52 44 -85 13 -14 25 -29 25 -33 0 -4 4 -18 8 -30 4 -12 6 -28 6
-34 -1 -7 3 -13 9 -13 6 0 8 -4 5 -10 -3 -5 -3 -16 2 -22 4 -7 8 -17 9 -23 10
-49 13 -60 14 -60 2 0 2 -3 15 -60 3 -16 8 -37 10 -45 2 -8 4 -23 4 -34 1 -15
4 -16 16 -6 9 7 18 10 22 6 3 -3 2 -6 -4 -6 -11 0 -14 -18 -17 -95 0 -25 -4
-45 -7 -45 -4 0 -6 -8 -5 -17 1 -34 -49 -167 -72 -192 -7 -7 -11 -18 -9 -24 2
-7 -5 -20 -15 -31 -10 -11 -18 -26 -18 -33 0 -8 -4 -11 -10 -8 -5 3 -10 0 -10
-8 0 -16 -95 -119 -103 -111 -3 3 -8 -4 -12 -15 -3 -12 -13 -21 -21 -21 -8 0
-17 -7 -20 -15 -4 -8 -10 -12 -15 -9 -5 3 -9 1 -9 -5 0 -5 -28 -26 -62 -47
-35 -21 -66 -43 -70 -48 -4 -6 -8 -7 -8 -3 0 5 -16 0 -36 -12 -19 -12 -42 -21
-50 -21 -8 0 -14 -5 -14 -10 0 -6 -3 -9 -7 -8 -16 3 -63 -15 -63 -24 0 -5 -4
-7 -9 -4 -5 4 -22 1 -38 -6 -15 -6 -35 -12 -43 -13 -8 -1 -28 -8 -45 -15 -33
-14 -49 -19 -82 -22 -13 -1 -23 -5 -23 -8 0 -3 -10 -7 -22 -7 -13 -1 -32 -4
-43 -6 -11 -2 -26 0 -33 6 -7 6 -12 6 -11 1 4 -23 -2 -26 -17 -8 -8 10 -13 13
-9 7 3 -7 2 -13 -2 -13 -5 0 -15 6 -22 13 -10 10 -12 9 -9 -3 2 -11 -6 -15
-29 -14 -18 0 -33 -4 -33 -10 0 -5 -3 -6 -6 -3 -7 7 -48 -18 -50 -31 -5 -28
-18 -51 -25 -47 -4 3 -4 17 2 32 5 14 8 28 5 30 -2 2 -8 -10 -14 -26 -9 -24
-8 -34 4 -45 10 -11 12 -21 4 -40 -5 -14 -6 -27 -2 -30 8 -5 14 -58 16 -131 0
-22 5 -43 11 -47 6 -5 6 -8 -2 -8 -9 0 -8 -14 4 -52 8 -29 17 -64 20 -78 2
-14 11 -31 20 -37 9 -7 14 -13 10 -13 -5 0 18 -48 63 -130 8 -14 15 -30 16
-37 1 -6 12 -22 24 -35 12 -13 29 -35 38 -50 9 -16 20 -28 24 -28 4 0 8 -6 8
-13 0 -7 9 -19 20 -27 11 -8 20 -20 20 -26 0 -6 11 -20 25 -30 14 -10 25 -23
25 -27 0 -5 11 -18 25 -29 13 -10 24 -22 24 -26 -1 -4 -1 -14 0 -22 1 -13 2
-13 11 0 7 11 10 11 10 2 0 -7 5 -10 11 -6 8 4 8 0 0 -15 -10 -17 -9 -20 4
-15 8 3 21 0 28 -8 8 -7 28 -24 45 -37 18 -13 32 -28 32 -33 0 -13 26 -38 33
-32 3 3 10 -4 17 -15 6 -12 15 -19 21 -15 14 9 113 -67 104 -80 -3 -3 -2 -4 2
-1 11 8 33 -16 26 -29 -4 -6 2 -4 12 4 10 8 16 10 12 4 -4 -7 5 -17 23 -24 19
-8 29 -19 28 -29 -2 -11 4 -16 20 -15 17 1 22 -3 17 -14 -3 -9 -3 -13 1 -9 4
4 14 1 23 -6 14 -11 14 -10 2 6 -12 15 -12 17 3 11 9 -3 16 -11 16 -16 0 -6 7
-8 15 -4 8 3 15 2 15 -3 0 -4 19 -28 43 -52 58 -63 95 -114 74 -106 -11 4 -15
1 -12 -13 2 -10 -6 -31 -17 -45 -16 -20 -18 -29 -9 -35 14 -8 -8 -20 -37 -20
-13 0 -13 3 4 16 18 14 18 15 -6 8 -14 -4 -27 -9 -30 -13 -7 -8 -32 -7 -48 3
-7 4 -19 5 -27 2 -8 -3 -15 -1 -15 5 0 6 -6 9 -12 6 -7 -2 -37 8 -65 24 -33
17 -55 24 -59 17 -4 -7 -9 -6 -14 1 -4 7 -16 13 -28 14 -12 0 -19 3 -17 5 8 9
-88 73 -101 68 -8 -3 -14 1 -14 9 0 9 6 12 18 9 14 -5 14 -4 2 4 -8 6 -18 8
-22 6 -4 -3 -8 -1 -8 3 0 5 -10 9 -21 10 -12 1 -28 12 -37 24 -9 13 -25 31
-36 41 -12 11 -30 28 -41 38 -12 11 -26 20 -33 20 -7 0 -11 4 -8 9 3 5 -10 19
-29 32 -19 13 -35 27 -35 32 0 4 -7 7 -16 7 -8 0 -12 5 -9 10 3 6 1 10 -5 10
-12 0 -18 4 -103 83 -34 32 -66 61 -70 65 -4 4 -36 37 -70 73 -34 36 -70 67
-79 68 -34 2 -43 2 -63 -2 -11 -3 -19 -10 -17 -17 1 -6 -1 -9 -6 -6 -5 3 -16
-4 -25 -15 -9 -10 -14 -19 -11 -19 3 0 -9 -13 -27 -29 -20 -19 -29 -34 -24
-43 5 -7 5 -10 0 -6 -10 10 -37 -11 -29 -23 3 -5 -3 -6 -12 -2 -12 4 -15 3
-10 -5 4 -7 1 -12 -8 -12 -8 0 -18 -9 -21 -20 -4 -11 -11 -18 -16 -15 -5 4 -9
2 -9 -3 0 -5 -20 -31 -45 -57 -24 -27 -41 -53 -38 -58 3 -6 1 -7 -5 -4 -5 4
-21 -6 -35 -22 -14 -17 -27 -27 -31 -24 -3 3 -8 -2 -12 -11 -3 -9 -10 -16 -15
-16 -14 0 -99 -92 -93 -101 3 -5 -2 -6 -10 -3 -9 3 -19 -3 -26 -16 -6 -12 -14
-19 -17 -16 -3 2 -17 -6 -31 -20 -15 -13 -30 -24 -34 -24 -15 0 -23 -4 -42
-22 -10 -9 -23 -15 -28 -12 -4 3 -11 -1 -14 -10 -3 -8 -12 -12 -20 -9 -8 3
-14 0 -14 -6 0 -6 -6 -10 -12 -8 -7 1 -12 -4 -10 -11 1 -8 -2 -11 -8 -7 -6 4
-18 1 -27 -7 -9 -7 -18 -12 -20 -10 -2 1 -18 -5 -35 -14 -33 -17 -108 -26
-108 -13 0 4 -9 5 -20 2 -43 -11 -63 41 -30 79 8 10 34 36 58 60 23 23 40 48
38 54 -3 8 1 11 9 8 8 -3 16 3 20 16 4 12 9 19 12 16 3 -3 16 8 30 25 14 16
29 27 34 23 5 -3 9 1 10 8 0 7 23 30 50 51 29 22 47 42 43 49 -4 6 -3 8 3 5 5
-4 24 10 41 29 18 20 32 32 32 28 0 -4 9 2 20 14 11 12 20 26 20 32 0 5 4 10
9 10 16 0 132 170 125 182 -4 7 -3 8 4 4 6 -3 16 3 22 14 6 11 16 18 21 14 6
-3 9 0 8 7 -2 8 4 28 14 45 9 17 14 34 12 38 -3 3 -2 4 1 1 7 -4 44 38 44 50
0 4 9 19 20 35 11 15 17 30 13 34 -3 3 -1 6 5 6 7 0 12 7 12 15 0 8 4 15 8 15
7 0 56 137 54 150 -1 3 5 15 13 26 11 16 11 24 2 33 -9 10 -9 12 2 9 17 -4 32
42 19 59 -6 7 -5 20 2 32 8 16 8 21 -2 21 -9 0 -10 2 -2 8 7 4 14 18 15 32 2
14 8 28 13 32 15 10 11 251 -4 256 -9 3 -9 6 1 13 11 7 10 9 -3 9 -9 0 -20 5
-24 12 -5 7 -3 8 6 3 8 -5 11 -4 6 3 -4 6 -13 9 -21 5 -8 -3 -15 0 -15 6 0 7
-23 11 -62 11 -35 0 -90 2 -123 5 -33 3 -75 6 -92 8 -18 1 -33 -2 -33 -8 0 -5
-4 -4 -9 3 -4 7 -14 15 -22 16 -36 7 -106 17 -126 19 -13 1 -23 5 -23 9 0 4
-10 8 -23 8 -13 0 -28 5 -35 12 -7 7 -12 9 -12 4 0 -4 -12 1 -27 12 -16 11
-39 23 -53 27 -13 4 -42 19 -65 32 -22 13 -48 26 -57 30 -10 3 -18 9 -18 14 0
5 -5 9 -10 9 -26 0 -121 109 -120 136 1 5 7 -2 15 -16 20 -34 19 -21 -2 26
-19 43 -20 47 -22 70 0 8 -5 12 -11 9 -6 -4 -7 2 -1 17 5 14 4 29 -2 40 -8 13
-7 21 4 35 9 10 14 27 11 37 -3 15 -6 16 -13 5 -6 -10 -9 -4 -9 19 0 24 3 31
13 26 9 -6 9 -5 1 7 -16 19 -17 182 -2 173 7 -5 8 -2 2 7 -17 26 -20 244 -5
263 8 10 9 16 1 21 -5 3 -10 12 -10 18 0 7 4 6 10 -3 6 -9 10 -10 10 -3 0 6
-4 14 -10 18 -6 4 -6 15 0 30 7 18 6 25 -3 26 -9 0 -9 2 1 6 9 4 10 8 2 18 -8
9 -8 15 0 20 5 3 10 15 10 26 0 29 133 155 151 143 5 -3 9 0 9 6 0 6 10 14 23
19 12 5 38 20 58 34 20 13 53 30 73 37 21 7 33 16 30 22 -4 6 -2 8 4 4 6 -3
23 -1 39 5 15 6 39 13 53 16 13 2 29 8 35 13 6 5 20 8 30 6 11 -2 35 6 53 16
19 10 31 14 27 8 -8 -13 11 -13 55 1 52 15 111 30 145 34 11 2 21 4 23 5 1 2
5 3 10 5 4 1 19 5 33 9 33 9 51 46 55 111 4 73 19 135 33 135 4 0 23 14 41 30
18 17 38 30 42 30 5 0 6 6 2 13 -5 8 -2 8 9 -2 11 -9 17 -10 17 -2 0 6 3 10 8
10 4 -1 10 0 15 1 4 1 10 3 15 5 4 1 18 5 32 9 14 4 36 8 50 10 49 6 80 18 73
29 -4 6 -1 7 8 1 21 -13 39 -14 39 -1 0 9 2 9 8 1 8 -12 62 -25 62 -15 0 3 23
4 50 3 28 -2 56 1 63 7 8 6 38 10 68 10 44 0 72 3 97 10 1 1 3 0 5 -1 8 -6
145 78 160 98 45 60 11 149 -60 157 -15 2 -38 9 -50 16 -13 6 -23 10 -23 7 0
-3 -14 -1 -32 4 -21 7 -36 6 -45 -2 -11 -9 -13 -8 -11 2 2 10 -8 14 -34 15
-21 0 -38 3 -38 7 0 4 -13 3 -30 -2 -19 -5 -30 -5 -30 1 0 6 -5 7 -12 3 -6 -4
-48 -8 -92 -10 -156 -5 -226 -11 -233 -17 -3 -4 -12 -2 -20 4 -9 9 -13 8 -13
0 0 -6 -3 -10 -7 -9 -12 4 -54 -28 -46 -35 3 -4 1 -7 -5 -7 -7 0 -12 -7 -12
-15 0 -8 -4 -15 -10 -15 -5 0 -9 -4 -7 -8 1 -4 -11 -20 -26 -35 -18 -16 -26
-31 -21 -39 4 -7 4 -10 -1 -6 -11 10 -56 -15 -82 -46 -13 -14 -27 -26 -33 -26
-5 0 -6 -7 -3 -17 4 -11 3 -14 -5 -9 -7 4 -12 1 -12 -8 0 -9 -3 -15 -7 -14
-11 3 -63 -27 -98 -56 -16 -14 -35 -30 -42 -36 -7 -5 -17 -10 -23 -10 -5 0
-10 -4 -10 -8 0 -4 -16 -14 -35 -21 -19 -7 -40 -18 -47 -24 -12 -11 -65 -39
-78 -41 -3 -1 -11 -5 -17 -9 -7 -5 -23 -10 -35 -12 -12 -3 -25 -10 -30 -17 -4
-7 -8 -10 -8 -5 0 4 -12 1 -27 -6 -16 -8 -34 -12 -40 -10 -7 3 -13 0 -13 -5 0
-6 -8 -9 -17 -7 -10 1 -25 -1 -34 -6 -10 -5 -21 -3 -28 4 -10 9 -15 8 -27 -7
-12 -17 -14 -17 -14 -3 0 10 -5 14 -15 11 -8 -4 -15 -12 -15 -20 0 -8 -5 -14
-11 -14 -5 0 -7 6 -3 13 6 8 3 8 -9 -1 -9 -8 -22 -10 -28 -6 -7 4 -9 3 -5 -4
4 -7 -7 -9 -34 -7 -22 2 -40 0 -40 -3 0 -6 -75 -8 -82 -2 -11 7 -39 6 -44 -1
-4 -6 -11 -6 -19 1 -7 6 -17 10 -21 9 -5 -1 -13 -1 -19 0 -5 1 -35 2 -66 3
-48 0 -58 3 -66 22 -14 33 -1 76 23 76 8 0 14 5 14 11 0 6 7 9 15 5 8 -3 15
-1 15 4 0 5 10 10 23 9 12 0 40 3 62 7 22 4 50 8 63 8 12 1 22 4 22 7 0 3 6 6
13 6 6 0 39 6 72 13 33 7 68 12 78 12 9 -1 16 2 13 6 -2 4 12 8 31 9 19 1 40
6 46 11 7 5 24 12 40 16 15 3 27 11 27 16 0 5 6 7 13 4 7 -2 22 4 34 15 13 12
23 16 25 9 3 -7 14 -5 35 5 17 9 33 13 37 10 3 -4 6 -1 6 6 0 7 4 9 10 6 9 -5
67 29 81 48 3 5 9 8 13 7 13 -2 55 37 48 45 -4 5 -2 5 4 2 12 -7 73 57 75 77
6 58 -27 97 -83 102 -18 2 -60 5 -94 8 -33 3 -73 8 -89 12 -22 5 -26 4 -21 -7
5 -10 3 -9 -6 1 -7 9 -20 15 -28 15 -8 -1 -19 1 -25 4 -10 5 -35 10 -67 13
-10 1 -18 5 -18 9 0 3 -19 12 -42 20 -90 29 -163 94 -164 146 -1 26 4 34 25
41 14 5 29 9 32 8 4 -1 16 7 26 16 13 12 23 14 29 8 7 -7 16 -5 29 4 13 9 28
11 46 6 15 -5 30 -6 33 -2z m3947 -21 c-10 -9 -11 -8 -5 6 3 10 9 15 12 12 3
-3 0 -11 -7 -18z m-576 -67 c5 8 12 7 23 -2 13 -11 14 -11 7 2 -7 12 -6 13 6
5 8 -6 32 -17 54 -24 21 -8 45 -20 53 -27 7 -8 20 -14 28 -14 8 0 13 -4 10 -8
-3 -5 5 -19 17 -33 22 -24 31 -57 30 -116 0 -18 4 -33 9 -33 5 0 6 -6 1 -12
-11 -19 -13 -38 -2 -38 5 0 4 -11 -1 -25 -5 -14 -6 -25 -2 -25 7 0 9 -44 11
-258 1 -68 4 -91 13 -86 8 5 8 3 2 -7 -12 -19 -11 -192 1 -201 6 -5 6 -8 -1
-8 -7 0 -10 -25 -7 -72 2 -40 4 -81 4 -91 0 -11 5 -15 12 -10 9 5 9 3 1 -8
-19 -23 -5 -75 22 -88 54 -24 232 25 302 84 33 28 71 100 74 143 1 6 4 12 7
12 3 0 7 10 7 23 1 12 4 49 8 82 12 113 12 130 3 143 -6 7 -5 17 3 27 7 8 8
15 3 15 -5 0 -10 15 -11 33 -4 45 -7 66 -13 72 -3 2 -3 27 1 55 6 49 28 79 58
80 6 0 12 5 12 11 0 5 4 8 8 5 5 -3 26 1 47 8 53 19 125 7 125 -20 0 -8 5 -14
10 -14 6 0 10 -6 10 -14 0 -8 4 -16 8 -18 11 -4 77 -140 74 -150 -1 -5 5 -8
14 -8 8 0 12 -4 9 -10 -3 -5 -3 -15 1 -22 10 -16 12 -58 2 -52 -4 3 -4 -6 2
-20 6 -17 6 -27 -1 -32 -8 -4 -8 -9 0 -17 7 -7 7 -14 0 -24 -9 -10 -8 -17 2
-30 8 -10 9 -14 2 -10 -8 5 -11 -2 -11 -20 1 -34 -43 -134 -71 -165 -12 -12
-21 -28 -21 -35 0 -8 -4 -11 -10 -8 -5 3 -10 0 -10 -8 0 -8 -7 -18 -16 -21 -8
-3 -13 -10 -10 -14 3 -5 -4 -15 -16 -23 -11 -8 -37 -31 -58 -51 -21 -20 -41
-34 -44 -31 -3 4 -6 1 -6 -4 0 -10 -96 -77 -112 -78 -3 0 -10 -3 -14 -7 -4 -5
-16 -8 -27 -8 -14 0 -17 -5 -12 -17 5 -14 4 -15 -6 -6 -7 8 -18 9 -28 4 -17
-9 -63 -19 -121 -26 -19 -2 -44 -6 -55 -9 -11 -2 -23 -5 -28 -5 -17 -2 -44
-63 -40 -94 7 -63 23 -108 34 -101 5 3 9 1 9 -5 0 -9 74 -31 117 -34 12 -1 19
-4 17 -6 -6 -7 69 -31 78 -25 4 3 8 1 8 -5 0 -9 40 -27 49 -22 2 2 7 -1 10 -6
3 -4 30 -21 60 -37 75 -40 176 -129 226 -198 10 -15 23 -24 28 -21 6 3 7 1 3
-5 -3 -6 1 -18 10 -26 8 -9 12 -16 7 -16 -4 0 1 -7 11 -15 11 -8 17 -15 13
-15 -4 0 3 -18 14 -40 12 -22 25 -40 30 -40 4 0 6 -6 3 -13 -2 -7 4 -22 15
-34 11 -11 17 -24 14 -27 -4 -3 -2 -6 4 -6 11 0 40 -59 35 -72 -1 -5 3 -8 9
-8 5 0 7 -4 4 -10 -3 -5 -3 -16 2 -22 4 -7 9 -24 10 -38 2 -14 4 -31 5 -37 1
-7 4 -13 7 -13 4 0 8 -21 9 -47 1 -26 5 -49 9 -52 5 -3 9 -26 11 -51 2 -25 8
-50 14 -57 7 -9 7 -13 -1 -13 -9 0 -9 -5 -1 -20 8 -15 8 -20 -2 -20 -9 0 -10
-3 -2 -8 7 -4 11 -46 11 -112 0 -177 2 -192 16 -184 9 6 9 5 0 -8 -7 -8 -10
-18 -6 -21 3 -4 1 -7 -6 -7 -7 0 -9 -5 -6 -11 6 -9 10 -173 5 -189 -2 -7 -2
-143 0 -155 1 -5 1 -14 0 -20 -1 -5 -3 -82 -4 -170 -1 -89 -6 -166 -10 -173
-4 -7 -3 -12 1 -12 12 0 7 -59 -7 -95 -6 -16 -11 -31 -11 -32 3 -16 -40 -73
-55 -73 -4 0 -13 -8 -21 -17 -9 -11 -11 -12 -7 -3 6 11 2 10 -13 -3 -11 -9
-23 -14 -26 -10 -4 3 -7 1 -7 -5 0 -8 -7 -9 -26 -2 -16 7 -23 7 -19 0 3 -6 1
-10 -4 -10 -6 0 -11 5 -11 10 0 6 -9 10 -19 10 -11 0 -27 7 -35 16 -9 8 -16
12 -17 7 0 -4 -5 3 -11 17 -13 32 -19 369 -7 393 5 9 6 17 2 17 -4 0 -9 17
-10 37 -4 99 -6 113 -16 113 -5 0 0 9 13 20 19 17 20 20 6 20 -10 0 -14 5 -11
11 4 6 13 8 21 5 8 -3 11 0 7 9 -3 8 -10 12 -17 9 -6 -3 -2 2 8 10 11 9 15 16
8 16 -6 0 -9 7 -5 17 4 9 2 14 -3 11 -5 -4 -10 27 -10 70 -3 136 -11 252 -17
259 -4 3 -2 12 4 20 6 7 8 13 3 13 -5 0 -10 35 -11 78 -1 67 -8 147 -13 147
-1 0 -3 16 -6 35 -2 19 -5 49 -7 65 -2 17 -7 36 -11 43 -4 7 -5 16 -1 21 3 5
2 12 -3 15 -5 3 -7 23 -6 45 1 23 -2 38 -7 35 -5 -3 -9 6 -9 20 0 14 -5 28
-11 32 -8 4 -7 9 2 15 10 6 11 9 2 9 -7 0 -13 8 -13 19 0 10 -7 38 -16 62 -8
24 -18 55 -20 68 -3 13 -11 36 -19 51 -8 15 -11 31 -7 35 4 5 1 5 -5 1 -12 -7
-18 6 -14 28 1 5 -6 3 -15 -5 -11 -8 -15 -9 -11 -2 5 7 1 23 -8 37 -18 27 -16
48 5 58 11 6 10 7 -5 5 -11 -2 -19 -9 -17 -15 1 -7 -2 -12 -8 -12 -13 0 -28
32 -23 50 4 13 3 13 -5 1 -8 -12 -16 -9 -41 15 -17 16 -31 36 -31 44 0 11 -2
12 -8 2 -6 -9 -13 -7 -30 8 -11 11 -28 20 -37 20 -8 0 -15 5 -15 10 0 6 -7 10
-15 10 -8 0 -15 5 -15 10 0 6 -9 10 -20 10 -11 0 -20 5 -20 12 0 9 -3 9 -11 1
-8 -8 -20 -8 -36 -2 -16 6 -22 5 -18 -1 3 -6 0 -10 -8 -10 -8 0 -17 -9 -20
-21 -3 -12 -10 -19 -14 -16 -5 3 -9 -21 -10 -54 -1 -32 3 -62 8 -65 6 -3 5
-11 -2 -20 -6 -8 -9 -17 -6 -21 4 -3 2 -12 -4 -19 -6 -8 -7 -14 0 -18 6 -4 8
-13 5 -21 -4 -8 -9 -13 -13 -10 -4 2 -9 -19 -10 -46 -2 -40 1 -49 11 -43 10 6
10 4 -1 -9 -11 -14 -11 -17 0 -18 10 0 11 -2 2 -6 -7 -2 -13 -11 -13 -19 0 -9
5 -12 11 -8 8 4 8 1 2 -12 -10 -20 -10 -30 0 -54 7 -18 7 -19 10 -145 1 -55 6
-105 10 -112 4 -6 3 -14 -2 -18 -5 -3 -8 -14 -6 -25 2 -11 0 -20 -5 -20 -5 0
-6 -7 -3 -17 4 -11 3 -14 -5 -9 -7 4 -12 1 -12 -9 0 -10 5 -13 13 -9 8 6 8 3
-1 -9 -8 -9 -11 -21 -7 -27 3 -5 0 -10 -7 -10 -9 -1 -7 -5 5 -14 17 -13 17
-14 0 -21 -10 -4 -13 -9 -8 -11 6 -2 9 -34 8 -71 -1 -40 3 -74 10 -82 8 -10 8
-13 1 -8 -7 4 -14 -2 -17 -13 -3 -11 0 -20 6 -20 7 0 5 -5 -3 -10 -14 -9 -7
-15 14 -11 5 1 5 -4 -1 -11 -6 -7 -11 -29 -12 -48 0 -19 -1 -88 -3 -152 -2
-65 1 -118 6 -118 4 0 6 -9 3 -20 -3 -11 -2 -20 1 -20 4 0 7 -45 7 -100 0 -55
-3 -100 -7 -100 -9 0 -8 -79 1 -85 4 -2 6 -28 4 -57 -2 -29 -5 -127 -7 -218
-2 -91 -6 -178 -10 -195 -7 -29 -7 -29 9 -10 8 11 13 25 11 32 -3 7 -2 13 2
13 5 0 7 18 6 40 -1 21 1 52 5 67 5 24 7 20 11 -22 3 -30 0 -66 -8 -90 -8 -22
-15 -46 -16 -53 -1 -7 -8 -18 -15 -25 -10 -9 -12 -9 -9 2 5 22 -20 24 -26 3
-8 -25 -54 -44 -98 -42 -80 3 -96 5 -92 12 2 3 -10 20 -27 37 -24 24 -28 35
-20 45 6 7 8 16 4 20 -4 3 -7 23 -8 44 -1 21 -3 42 -6 47 -2 6 -4 52 -4 102 0
51 -4 93 -8 93 -5 0 -5 5 -2 10 5 9 6 59 3 165 0 11 2 27 3 35 3 9 -2 14 -10
12 -10 -2 -12 1 -5 10 6 7 9 59 7 118 -4 114 -4 577 0 703 1 46 -2 77 -8 77
-6 0 -6 3 0 8 14 9 13 65 0 74 -7 5 -7 8 0 8 11 0 11 152 0 169 -3 6 -3 11 2
11 6 0 9 102 3 120 -1 3 -2 75 -2 160 -1 154 -9 200 -35 200 -7 0 -12 6 -11
12 2 9 -7 12 -26 10 -21 -3 -26 -1 -20 10 6 11 5 11 -8 0 -12 -10 -17 -10 -20
-1 -3 8 -8 8 -19 -2 -8 -8 -21 -15 -29 -17 -8 -2 -18 -8 -21 -14 -3 -5 -10
-10 -15 -10 -16 -1 -54 -21 -54 -29 0 -4 -11 -10 -25 -13 -16 -4 -23 -11 -19
-18 4 -7 3 -8 -4 -4 -6 4 -20 -2 -32 -14 -11 -11 -24 -20 -30 -20 -5 0 -10 -5
-10 -11 0 -6 -6 -17 -12 -24 -29 -32 -37 -44 -57 -83 -24 -46 -41 -115 -46
-185 -2 -27 -6 -51 -9 -55 -3 -3 0 -12 7 -20 8 -10 8 -13 1 -9 -7 4 -15 0 -18
-9 -4 -10 -2 -13 7 -8 9 6 9 4 1 -7 -6 -8 -12 -39 -13 -69 -3 -67 -8 -115 -10
-115 -2 0 -4 -25 -5 -56 -2 -31 -6 -61 -10 -67 -3 -6 -2 -13 4 -17 6 -4 7 -12
3 -18 -4 -7 -8 -23 -8 -37 0 -14 -4 -31 -8 -37 -5 -7 -4 -13 2 -13 5 0 8 -10
5 -22 -6 -31 -7 -128 0 -155 3 -13 2 -23 -2 -23 -12 0 -11 -54 1 -69 9 -12 9
-13 0 -7 -9 5 -13 0 -13 -16 0 -19 2 -20 10 -8 8 12 10 11 7 -5 -1 -11 -6 -26
-10 -32 -5 -7 -4 -13 1 -13 10 0 11 -6 15 -65 2 -22 0 -50 -4 -61 -4 -12 -5
-24 -2 -27 15 -15 25 -517 11 -517 -5 0 -8 -9 -8 -19 0 -19 -79 -96 -88 -86
-3 3 -11 0 -19 -6 -7 -6 -13 -7 -13 -2 0 5 -22 8 -50 7 -53 -1 -96 19 -83 39
9 16 13 57 5 57 -4 0 -8 44 -8 98 -2 140 -5 160 -35 193 -29 33 -55 37 -118
20 -64 -18 -211 -11 -235 11 -10 9 -53 31 -95 48 -44 17 -85 41 -95 55 -10 14
-22 22 -27 19 -5 -3 -9 0 -9 6 0 6 -4 9 -9 5 -5 -3 -13 0 -17 6 -4 8 -3 9 4 5
7 -4 12 -3 12 2 0 15 -28 22 -34 9 -3 -7 -4 -4 -3 5 2 20 -71 101 -84 92 -19
-11 -96 106 -84 126 3 6 1 10 -5 10 -12 0 -31 43 -35 81 -1 14 -8 35 -14 47
-6 12 -9 22 -6 22 3 0 0 10 -6 22 -17 32 -19 138 -3 169 7 15 10 29 7 33 -4 3
-1 6 6 6 7 0 9 5 6 10 -4 6 -12 8 -18 4 -7 -3 -4 1 6 9 10 9 18 18 18 21 -2
17 1 24 27 52 44 48 58 53 115 38 28 -7 53 -11 57 -9 4 2 6 -28 5 -68 0 -40 2
-76 4 -82 5 -9 10 -48 12 -85 1 -28 41 -130 49 -125 5 3 6 -3 3 -13 -2 -10 6
-29 20 -44 16 -17 21 -29 14 -32 -7 -2 -4 -5 6 -5 9 -1 17 -8 17 -16 0 -21
119 -137 133 -129 7 4 9 4 5 -1 -8 -8 44 -55 60 -55 6 0 14 -5 18 -12 5 -7 3
-8 -7 -3 -12 8 -12 6 0 -9 11 -13 16 -14 22 -4 7 10 9 9 9 -4 0 -16 11 -23 33
-19 4 0 7 -6 7 -15 0 -8 5 -12 10 -9 6 3 10 2 10 -2 0 -13 106 -66 137 -68 30
-2 69 13 59 22 -3 3 2 11 11 18 13 10 16 33 18 129 1 64 -2 119 -6 122 -5 3
-4 15 0 27 8 21 7 449 -1 487 -2 8 -7 21 -11 28 -5 7 -3 12 3 12 7 0 8 5 3 13
-4 6 -9 26 -10 42 -7 110 -11 144 -19 156 -6 12 -5 12 8 1 13 -10 18 -10 24
-1 4 7 3 9 -3 6 -6 -4 -13 5 -15 22 -3 21 -1 28 9 24 7 -3 13 0 13 6 0 6 -6
11 -12 11 -10 0 -9 3 1 9 7 5 14 25 15 44 0 19 5 33 9 30 5 -3 8 1 6 8 -3 27
1 40 11 34 5 -3 7 0 4 8 -3 8 2 17 10 20 9 4 16 13 16 22 0 8 5 15 10 15 6 0
10 5 10 10 0 18 52 90 61 84 5 -3 9 -1 9 4 0 5 14 24 31 41 18 19 28 39 25 47
-3 8 -2 12 3 9 5 -3 16 3 23 13 7 11 23 22 36 26 12 4 22 12 22 17 0 5 6 9 14
9 8 0 16 7 20 15 3 8 9 14 13 13 5 -2 19 7 33 20 13 12 28 22 32 22 5 0 6 4 3
10 -3 6 1 7 9 4 9 -3 16 -1 16 5 0 6 7 11 15 11 9 0 18 7 21 15 4 8 10 13 14
10 5 -3 15 2 23 10 9 8 20 15 26 15 6 0 19 4 29 10 28 16 83 36 115 43 10 2
22 8 25 13 4 5 15 10 26 12 21 4 59 36 62 55 11 51 14 67 18 104 3 30 0 45
-11 54 -17 15 -110 19 -135 7 -9 -5 -19 -4 -23 2 -3 6 -15 6 -30 0 -13 -5 -27
-6 -29 -1 -3 5 -17 6 -30 4 -14 -3 -39 0 -55 5 -21 8 -33 8 -37 0 -4 -7 -9 -7
-13 0 -3 6 -20 12 -36 14 -17 2 -33 7 -36 11 -3 4 -18 10 -34 13 -15 3 -37 10
-47 15 -11 6 -31 13 -45 15 -14 3 -33 13 -42 22 -9 10 -11 11 -6 3 9 -12 7
-12 -12 -1 -12 8 -20 17 -17 21 2 4 -6 14 -19 22 -12 8 -37 29 -56 46 -19 16
-37 32 -40 33 -11 5 -71 96 -71 107 0 6 -5 11 -11 11 -5 0 -8 4 -5 9 3 5 -1
12 -9 15 -8 3 -14 9 -13 13 0 4 -4 21 -11 37 -6 16 -9 31 -7 34 3 2 -1 17 -10
33 -8 16 -12 29 -8 29 3 0 -1 12 -11 26 -9 15 -12 23 -6 20 7 -5 11 3 12 21 2
54 7 78 21 104 14 27 78 96 78 84 0 -3 10 0 23 7 26 14 35 16 99 24 38 5 52 2
74 -15 15 -12 36 -21 48 -21 17 0 18 -2 6 -10 -11 -7 -11 -10 -2 -10 7 0 11
-4 7 -9 -3 -5 2 -17 11 -25 11 -12 12 -16 2 -16 -9 0 -9 -3 -2 -8 6 -4 10 -19
10 -34 -1 -16 1 -28 4 -28 3 0 6 -26 7 -58 0 -31 4 -79 7 -107 3 -27 6 -58 7
-68 0 -10 5 -15 11 -11 7 5 9 0 6 -14 -4 -14 4 -32 28 -58 19 -20 34 -41 34
-47 0 -6 3 -8 6 -4 4 3 13 -1 21 -9 8 -8 19 -12 23 -9 12 7 93 -33 103 -52 7
-11 12 -11 22 -3 10 9 19 9 32 0 16 -9 15 -10 -7 -5 -23 5 -23 5 -6 -6 15 -9
24 -9 39 0 14 9 17 9 12 1 -6 -9 4 -11 36 -7 24 3 44 6 45 6 11 6 45 41 39 41
-4 0 -3 6 3 13 15 19 15 387 -1 387 -8 0 -9 2 -1 8 6 4 11 36 10 77 -1 39 3
76 8 83 5 7 4 12 -2 12 -7 0 -8 10 -3 28 7 25 6 116 -1 200 -2 34 -46 91 -71
93 -6 1 -23 3 -37 6 -52 9 -150 5 -202 -8 -70 -17 -65 -16 -89 -18 -11 0 -18
-4 -16 -8 3 -5 -12 -9 -33 -9 -22 -1 -53 -9 -69 -17 -22 -11 -31 -12 -31 -4
-1 7 -8 3 -18 -8 -9 -11 -26 -20 -37 -21 -11 -1 -36 -7 -55 -14 -19 -8 -37
-12 -39 -11 -2 1 -7 -1 -10 -6 -8 -10 -70 -43 -82 -43 -16 0 -69 -42 -64 -51
3 -4 -4 -5 -15 -2 -12 3 -22 -1 -26 -11 -3 -9 -10 -14 -14 -11 -5 3 -17 -5
-27 -17 -10 -13 -24 -24 -31 -26 -8 -1 -25 -14 -40 -27 -15 -14 -30 -25 -35
-25 -4 0 -5 -4 -2 -10 3 -5 0 -10 -7 -10 -17 0 -90 -65 -83 -73 3 -4 2 -5 -1
-2 -4 2 -21 -7 -39 -20 -30 -24 -85 -31 -85 -12 0 4 -4 6 -10 2 -17 -11 -27
58 -14 102 7 22 10 44 7 47 -4 3 -2 6 3 6 8 0 24 33 36 75 8 25 129 148 173
175 22 13 43 29 47 34 4 6 8 8 8 4 0 -4 20 4 44 17 25 14 52 25 60 25 9 0 16
5 16 12 0 6 3 9 6 6 3 -4 17 0 31 7 15 8 30 12 35 9 4 -3 11 2 14 10 3 9 11
13 17 9 5 -3 16 2 24 12 7 11 13 15 13 11 0 -4 6 -4 13 1 6 4 19 8 27 8 8 0
21 4 28 8 7 5 12 3 12 -4 0 -7 7 -4 15 7 10 13 14 14 15 5 0 -11 3 -11 15 -1
8 7 15 10 15 6 0 -3 16 0 35 8 19 8 35 13 35 10 0 -3 6 -2 13 3 21 13 49 14
41 1 -5 -7 -3 -8 7 -2 17 10 38 15 62 15 9 0 15 4 13 8 -3 4 5 7 17 8 12 1 36
4 52 8 60 13 130 23 138 18 4 -2 7 2 7 9 0 8 3 9 8 3 8 -11 53 -15 47 -4 -3 3
8 6 23 6 28 0 119 15 142 23 3 1 8 2 13 1 4 0 7 4 7 9 0 7 6 7 19 0 14 -7 22
-7 26 0z m-4248 -143 c6 -72 9 -228 4 -232 -6 -3 -10 40 -14 140 -1 28 -6 53
-12 57 -6 5 -6 8 1 8 6 0 11 7 11 15 0 8 -5 15 -10 15 -5 0 -4 6 2 13 6 8 9
17 6 20 -3 4 -2 5 2 2 4 -3 8 -20 10 -38z m1028 -357 c-4 -6 -11 -8 -16 -5 -5
4 -9 1 -9 -6 0 -7 -3 -10 -6 -6 -9 9 5 27 22 27 8 0 12 -5 9 -10z m2580 -80
c3 -5 1 -10 -4 -10 -6 0 -11 5 -11 10 0 6 2 10 4 10 3 0 8 -4 11 -10z m-3495
-60 c0 -5 -5 -10 -11 -10 -5 0 -7 5 -4 10 3 6 8 10 11 10 2 0 4 -4 4 -10z m0
-160 c0 -5 -2 -10 -4 -10 -3 0 -8 5 -11 10 -3 6 -1 10 4 10 6 0 11 -4 11 -10z
m3040 -320 c0 -5 -2 -10 -4 -10 -3 0 -8 5 -11 10 -3 6 -1 10 4 10 6 0 11 -4
11 -10z m1760 -954 c0 -3 -4 -8 -10 -11 -5 -3 -10 -1 -10 4 0 6 5 11 10 11 6
0 10 -2 10 -4z m-5580 -166 c0 -5 -9 -9 -20 -7 -31 5 -36 17 -7 17 15 0 27 -4
27 -10z m6220 6 c0 -3 -4 -8 -10 -11 -5 -3 -10 -1 -10 4 0 6 5 11 10 11 6 0
10 -2 10 -4z m-6555 -60 c-10 -7 -15 -18 -12 -23 4 -6 -1 -17 -10 -24 -12 -10
-14 -10 -9 -1 4 6 3 12 -2 12 -14 0 -35 -47 -28 -65 3 -9 2 -13 -4 -10 -6 3
-10 1 -10 -4 0 -6 -4 -11 -9 -11 -18 0 32 101 62 126 16 14 32 22 35 19 3 -3
-3 -11 -13 -19z m-83 -163 c-4 -27 -4 -27 11 -8 15 19 16 18 6 -18 -10 -39 -1
-67 37 -104 31 -32 135 -39 183 -14 17 9 21 9 21 -2 0 -21 -108 -37 -167 -25
-27 5 -84 48 -78 58 3 5 0 10 -6 12 -14 5 -25 128 -12 128 6 0 8 -12 5 -27z
m1999 -137 c5 3 9 0 9 -6 0 -6 4 -9 9 -5 13 7 79 -24 115 -55 24 -22 51 -67
46 -79 -1 -2 4 -7 10 -11 9 -6 9 -13 2 -26 -7 -12 -7 -25 -1 -36 5 -10 6 -18
1 -18 -5 0 -8 -20 -8 -45 1 -25 -3 -45 -7 -45 -5 0 -5 -4 -2 -10 3 -5 1 -10
-5 -10 -6 0 -8 -5 -5 -11 4 -6 -1 -17 -11 -24 -15 -11 -16 -14 -4 -15 12 0 12
-2 2 -9 -8 -4 -13 -10 -12 -12 1 -2 -3 -17 -9 -32 -6 -16 -11 -35 -11 -43 0
-29 -29 -86 -41 -79 -8 5 -8 2 -1 -12 13 -24 2 -44 -26 -46 -18 -1 -19 -3 -8
-17 26 -30 25 -36 -4 -34 -16 1 -29 -1 -28 -5 2 -19 -3 -31 -11 -26 -5 3 -12
-4 -16 -15 -3 -11 -13 -20 -21 -20 -8 0 -12 -5 -9 -10 3 -6 -1 -17 -9 -26 -9
-8 -16 -13 -16 -10 0 3 -20 -14 -45 -37 -28 -27 -68 -52 -110 -67 -35 -14 -65
-28 -65 -32 0 -3 -16 -12 -35 -18 -19 -6 -35 -16 -35 -22 0 -6 -7 -8 -15 -4
-8 3 -15 1 -15 -5 0 -6 -5 -7 -10 -4 -6 4 -8 11 -4 16 3 6 -3 5 -14 -2 -12 -7
-19 -16 -16 -20 2 -4 -7 -6 -20 -5 -14 2 -24 -2 -23 -8 1 -6 -6 -10 -15 -10
-10 1 -18 -2 -18 -8 0 -5 -18 -7 -40 -5 -33 3 -38 2 -29 -10 9 -11 8 -12 -5
-7 -9 3 -16 10 -16 16 0 5 -4 6 -10 3 -10 -6 -15 13 -12 48 1 11 12 27 25 38
16 13 18 18 7 19 -10 0 -5 9 14 25 16 14 26 25 21 25 -4 0 -2 7 5 15 7 9 18
14 25 12 6 -3 17 8 24 24 7 16 16 27 21 24 4 -2 18 4 31 16 12 11 29 17 36 15
7 -3 13 -1 13 5 0 6 5 7 10 4 6 -3 10 -2 10 3 0 13 47 62 60 62 5 0 10 4 10 9
0 17 44 58 65 62 11 3 20 11 20 19 0 8 3 17 7 20 3 3 8 12 10 20 2 8 9 21 16
28 11 12 17 42 13 65 -1 5 3 6 8 3 17 -11 25 12 33 92 1 6 6 12 11 12 5 0 3
10 -5 23 -8 12 -13 31 -11 42 6 34 3 166 -4 178 -4 6 -7 26 -8 44 0 29 4 35
32 45 18 7 33 16 33 21 0 4 4 6 9 2 5 -3 12 -1 16 4 4 7 15 7 31 1 14 -6 30
-8 35 -4z m3839 -126 c0 -5 -5 -10 -11 -10 -5 0 -7 5 -4 10 3 6 8 10 11 10 2
0 4 -4 4 -10z m155 0 c3 -5 1 -10 -4 -10 -6 0 -11 5 -11 10 0 6 2 10 4 10 3 0
8 -4 11 -10z m-1760 -160 c3 -5 1 -10 -4 -10 -6 0 -11 5 -11 10 0 6 2 10 4 10
3 0 8 -4 11 -10z m1394 -146 c4 3 8 -1 8 -9 0 -8 -4 -15 -9 -15 -4 0 -8 2 -8
4 0 2 -2 10 -3 18 -2 7 -2 10 0 5 3 -4 8 -5 12 -3z m-1389 -8 c0 -3 -4 -8 -10
-11 -5 -3 -10 -1 -10 4 0 6 5 11 10 11 6 0 10 -2 10 -4z m1386 -41 c-3 -8 -1
-15 5 -15 6 0 7 -6 2 -12 -4 -7 -6 -24 -4 -38 2 -14 0 -22 -5 -18 -11 11 -13
98 -2 98 6 0 8 -7 4 -15z m9 -105 c3 -5 2 -10 -4 -10 -5 0 -13 5 -16 10 -3 6
-2 10 4 10 5 0 13 -4 16 -10z m-1398 -15 c0 -8 -4 -12 -9 -9 -5 3 -6 10 -3 15
9 13 12 11 12 -6z m-417 -116 c0 -5 -13 6 -30 24 -16 19 -30 39 -30 43 1 12
60 -54 60 -67z m260 -163 c0 -3 -4 -8 -10 -11 -5 -3 -10 -1 -10 4 0 6 5 11 10
11 6 0 10 -2 10 -4z m-2983 -116 c1 -11 -2 -20 -5 -20 -4 0 -8 9 -9 20 -1 11
2 20 5 20 4 0 8 -9 9 -20z m3701 -20 c-7 -10 -14 -17 -17 -15 -4 4 18 35 25
35 2 0 -1 -9 -8 -20z m-3698 -30 c0 -5 -6 -12 -12 -16 -7 -4 -10 -4 -6 1 4 4
3 14 -4 22 -8 11 -7 12 6 7 9 -3 16 -10 16 -14z m2940 -435 c0 -15 -32 -65
-41 -65 -6 0 -1 12 10 26 11 15 18 30 15 35 -3 5 0 9 5 9 6 0 11 -2 11 -5z
m2464 -1114 c4 -5 -1 -8 -9 -7 -21 3 -31 16 -12 16 9 0 18 -4 21 -9z"/>
<path d="M5181 8751 c-29 -22 -25 -61 8 -78 42 -20 86 26 57 60 -27 32 -41 36
-65 18z"/>
<path d="M5453 7958 c-10 -4 9 -6 44 -5 34 1 59 4 57 7 -8 7 -81 6 -101 -2z"/>
<path d="M5358 7955 c-2 -2 -30 -7 -62 -11 -33 -3 -68 -10 -80 -15 -17 -7 -16
-8 9 -4 17 2 57 7 90 11 64 7 71 9 57 18 -5 3 -11 3 -14 1z"/>
<path d="M5390 7951 c0 -6 9 -9 20 -8 11 1 20 5 20 9 0 4 -9 8 -20 8 -11 0
-20 -4 -20 -9z"/>
<path d="M5153 7923 c-34 -7 -28 -20 7 -15 16 2 27 8 24 13 -3 5 -6 8 -7 8 -1
-1 -12 -4 -24 -6z"/>
<path d="M5080 7900 c-13 -8 -12 -10 3 -10 9 0 17 5 17 10 0 12 -1 12 -20 0z"/>
<path d="M5030 7890 c-8 -5 -10 -10 -5 -10 6 0 17 5 25 10 8 5 11 10 5 10 -5
0 -17 -5 -25 -10z"/>
<path d="M4975 7870 c-3 -6 1 -7 9 -4 18 7 21 14 7 14 -6 0 -13 -4 -16 -10z"/>
<path d="M4918 7853 c7 -3 16 -2 19 1 4 3 -2 6 -13 5 -11 0 -14 -3 -6 -6z"/>
<path d="M5250 7752 c6 -13 14 -21 18 -18 3 4 -2 14 -12 24 -18 16 -18 16 -6
-6z"/>
<path d="M5276 7761 c9 -9 34 -9 34 -1 0 5 -9 8 -20 7 -10 -1 -17 -3 -14 -6z"/>
<path d="M5030 7741 c0 -11 26 -22 34 -14 3 4 6 11 6 17 0 6 -5 4 -10 -4 -6
-10 -10 -11 -10 -2 0 6 -4 12 -10 12 -5 0 -10 -4 -10 -9z"/>
<path d="M5726 7722 c-3 -4 4 -9 15 -9 23 -2 25 3 4 10 -8 4 -16 3 -19 -1z"/>
<path d="M5180 7021 c0 -10 19 -25 25 -20 1 2 -3 10 -11 17 -8 7 -14 8 -14 3z"/>
<path d="M6595 6930 c-3 -6 1 -7 9 -4 18 7 21 14 7 14 -6 0 -13 -4 -16 -10z"/>
<path d="M4176 5371 c5 -11 1 -13 -20 -9 -14 3 -26 1 -26 -4 0 -6 -7 -8 -15
-4 -8 3 -15 2 -15 -2 0 -4 -16 -7 -35 -6 -40 2 -67 -18 -58 -43 4 -11 3 -14
-5 -9 -14 8 -15 -6 -6 -53 5 -21 11 -30 20 -27 8 3 13 2 12 -2 -5 -26 17 -60
48 -71 19 -7 32 -17 29 -22 -4 -5 -1 -9 4 -9 6 0 11 5 11 11 0 6 7 3 16 -5 8
-9 21 -16 27 -16 7 0 25 -7 41 -15 15 -8 32 -12 37 -9 5 3 9 1 9 -5 0 -14 30
-7 41 10 6 10 9 10 9 1 0 -14 42 -33 80 -36 14 -1 31 -5 38 -9 7 -5 12 -3 12
4 0 8 3 9 13 0 8 -6 17 -8 21 -4 11 11 45 10 43 -1 -1 -6 4 -10 11 -8 6 1 12
-1 12 -5 0 -5 29 -9 65 -10 42 -1 65 2 65 9 0 6 3 9 6 5 9 -9 40 25 47 52 3
13 1 35 -5 50 -6 14 -10 32 -9 39 1 6 -5 12 -12 12 -8 0 -18 7 -21 16 -4 10
-12 14 -22 10 -14 -5 -15 -4 -4 9 11 13 10 14 -4 9 -10 -4 -18 0 -22 10 -3 9
-10 13 -15 10 -5 -3 -9 2 -9 12 0 14 -3 14 -15 4 -13 -11 -18 -11 -28 0 -10
10 -8 12 6 7 15 -6 16 -4 7 13 -13 25 -26 25 -39 3 -9 -15 -10 -13 -11 11 0
16 -3 27 -6 24 -3 -4 -20 0 -38 7 -18 8 -41 12 -52 11 -10 -2 -22 1 -25 6 -3
5 -12 10 -20 11 -8 2 -20 6 -26 10 -8 5 -13 3 -13 -5 0 -9 -3 -9 -10 2 -9 13
-10 13 -10 0 0 -12 -2 -12 -9 -1 -6 10 -10 10 -16 1 -6 -9 -10 -9 -16 1 -6 9
-12 10 -16 4 -9 -13 -23 -13 -42 -1 -11 7 -13 5 -8 -10 6 -14 2 -13 -14 6 -11
14 -17 19 -13 11z"/>
<path d="M3445 5340 c-11 -4 -23 -6 -27 -3 -5 2 -8 -1 -8 -7 0 -7 -5 -8 -17
-1 -13 7 -21 5 -30 -7 -11 -16 -12 -16 -13 1 0 9 -4 17 -10 17 -9 0 -14 -14
-11 -32 0 -5 -4 -8 -10 -8 -6 0 -9 7 -6 15 4 8 1 17 -5 21 -7 4 -8 3 -4 -4 4
-7 3 -12 -3 -12 -5 0 -20 -4 -33 -9 -13 -5 -27 -10 -33 -11 -17 -3 -35 -22
-29 -31 3 -5 -2 -6 -11 -3 -8 4 -23 0 -32 -7 -9 -8 -17 -12 -17 -10 -1 2 -11
1 -24 -3 -13 -4 -21 -13 -19 -20 5 -12 0 -14 -44 -18 -14 -2 -19 -8 -16 -19 3
-13 0 -16 -11 -12 -10 5 -13 2 -8 -6 5 -8 0 -18 -13 -27 -12 -8 -21 -20 -21
-26 0 -6 -7 -20 -17 -30 -9 -10 -11 -18 -5 -18 6 0 9 -6 6 -14 -3 -8 0 -24 6
-36 8 -15 8 -20 1 -16 -6 4 -11 1 -11 -6 0 -24 24 -68 38 -68 6 0 12 -4 12 -9
0 -4 28 -8 62 -9 51 0 65 4 80 21 11 12 16 15 12 7 -6 -12 -5 -13 7 -4 8 6 22
10 32 9 9 -2 15 0 13 3 -5 8 15 27 29 28 34 3 77 19 88 33 7 9 21 17 32 19 61
9 87 20 78 35 -3 6 -1 7 6 3 6 -4 18 0 27 8 9 9 19 14 24 11 4 -3 10 2 14 10
3 8 11 15 19 15 27 0 61 53 64 100 3 49 -13 113 -27 105 -5 -3 -10 0 -12 6 -2
6 -24 12 -48 13 -25 0 -47 4 -50 7 -3 4 -14 3 -25 -1z"/>
<path d="M3842 5024 c-11 -7 -22 -10 -26 -7 -4 4 -16 8 -27 10 -16 2 -20 -1
-15 -12 3 -9 0 -15 -9 -15 -8 0 -24 -9 -34 -19 -11 -11 -22 -17 -25 -14 -3 3
-8 -1 -12 -10 -3 -9 -14 -14 -25 -12 -10 2 -18 -1 -16 -7 1 -5 -8 -14 -21 -19
-16 -6 -21 -5 -16 2 4 8 0 7 -15 0 -11 -7 -21 -9 -21 -6 0 4 -7 -1 -16 -9 -8
-9 -23 -16 -33 -16 -9 0 -23 -6 -30 -12 -8 -7 -11 -8 -8 -2 4 8 -3 8 -28 0
-18 -6 -31 -14 -29 -18 3 -4 -2 -8 -10 -8 -10 0 -13 6 -10 18 4 10 2 13 -3 7
-11 -13 -75 -47 -69 -36 3 4 -8 8 -24 7 -17 -1 -30 -4 -30 -9 0 -4 -3 -6 -7
-6 -18 3 -34 -2 -30 -8 3 -5 -13 -9 -36 -11 -23 -1 -44 -6 -47 -10 -8 -11 -30
-13 -30 -3 0 11 -62 -10 -72 -24 -5 -7 -11 -6 -15 1 -10 14 -43 14 -44 0 -1
-6 -2 -19 -2 -28 0 -11 -7 -18 -19 -18 -16 0 -19 -6 -16 -32 2 -27 7 -33 26
-32 17 1 20 -2 12 -11 -6 -7 -10 -17 -9 -21 1 -5 0 -11 -1 -14 -1 -3 -4 -22
-6 -43 -1 -21 -9 -46 -16 -54 -10 -13 -10 -17 0 -20 6 -3 9 -10 5 -16 -5 -7
-8 -32 -9 -57 -1 -55 31 -92 81 -95 18 -1 37 -5 42 -8 13 -8 54 0 66 12 5 5
15 7 22 4 7 -2 27 3 44 12 17 8 31 12 31 8 0 -5 5 -1 10 7 9 13 10 13 10 0 0
-11 3 -12 8 -3 4 6 19 13 32 15 14 2 30 6 35 10 6 3 25 9 43 13 17 3 32 11 32
16 0 5 6 9 14 9 7 0 19 7 26 15 7 9 15 13 18 10 7 -6 82 36 82 47 0 4 3 7 8 7
20 -3 32 2 27 12 -4 6 2 13 14 16 11 3 19 9 16 13 -3 5 4 11 14 15 13 4 18 11
14 22 -4 10 -2 14 4 10 15 -9 20 17 21 96 0 40 -3 65 -9 61 -13 -7 -7 19 6 29
6 4 6 10 -2 15 -31 20 36 48 71 30 18 -10 19 -9 9 4 -11 12 -7 14 27 12 23 -1
37 2 34 7 -3 6 5 7 22 3 21 -6 25 -4 19 7 -6 11 -5 12 6 2 7 -7 23 -13 36 -13
13 0 23 -5 23 -11 0 -5 4 -8 9 -5 11 7 28 -14 28 -34 1 -24 7 -45 18 -52 6 -4
10 -15 10 -25 1 -10 6 -28 13 -39 6 -12 8 -24 5 -28 -3 -3 1 -14 10 -24 10
-10 15 -21 12 -24 -3 -3 6 -13 20 -22 14 -9 25 -14 25 -11 0 4 7 -1 16 -10 14
-13 19 -14 25 -3 7 10 9 10 9 1 0 -17 123 -79 128 -64 2 6 8 9 13 5 5 -3 9 0
9 6 0 6 5 8 10 5 6 -4 8 -10 5 -14 -8 -15 41 -31 54 -18 9 9 10 8 5 -7 -5 -13
-4 -17 4 -12 6 3 13 2 17 -3 3 -6 12 -8 20 -4 8 3 15 0 15 -5 0 -11 31 -9 53
4 7 5 6 0 -3 -12 -8 -10 -11 -16 -6 -12 4 3 21 2 37 -2 18 -5 29 -5 29 1 0 6
6 7 15 1 22 -12 171 11 168 26 -2 7 4 12 12 12 14 0 16 5 19 38 1 7 6 16 11
20 6 4 11 27 12 52 2 53 11 153 13 160 1 3 2 8 1 13 0 4 5 7 12 7 8 0 7 4 -3
10 -8 5 -11 10 -7 10 5 0 -1 14 -13 30 -12 17 -26 28 -31 25 -5 -4 -9 -2 -9 3
0 5 -21 10 -47 10 -79 1 -136 10 -143 23 -6 8 -9 8 -13 -2 -3 -9 -6 -7 -6 6
-1 16 -3 17 -11 5 -10 -16 -88 -16 -104 1 -14 13 -29 11 -20 -2 3 -6 -5 -3
-20 6 -15 10 -37 15 -51 13 -14 -3 -25 -2 -25 1 0 4 -12 8 -27 9 -36 3 -54 7
-76 17 -11 4 -39 8 -63 9 -24 0 -44 4 -44 8 0 4 -9 8 -20 8 -11 0 -20 5 -20
11 0 5 -4 8 -9 5 -5 -3 -12 1 -15 10 -3 9 -13 14 -21 10 -8 -3 -21 2 -30 10
-8 8 -24 16 -35 17 -11 1 -20 4 -20 8 0 14 -40 16 -58 3z"/>
<path d="M3765 4441 c-3 -3 -18 -7 -33 -9 -15 -2 -36 -12 -48 -23 -11 -10 -28
-19 -38 -19 -10 0 -14 -5 -10 -11 4 -7 1 -10 -7 -7 -8 3 -20 -2 -27 -11 -12
-14 -13 -14 -8 3 6 17 5 17 -11 5 -10 -8 -23 -21 -30 -29 -7 -8 -13 -10 -13
-5 0 7 -3 7 -8 0 -4 -5 -17 -16 -29 -22 -19 -11 -24 -10 -32 5 -10 16 -10 16
-11 0 0 -9 -5 -20 -12 -24 -7 -4 -8 -3 -4 4 4 7 2 12 -3 12 -6 0 -11 -4 -11
-10 0 -5 -9 -10 -20 -10 -11 0 -20 -4 -20 -9 0 -9 -48 -26 -64 -22 -14 3 -36
-21 -29 -32 3 -5 1 -7 -5 -3 -6 3 -14 1 -18 -5 -3 -6 -1 -15 6 -19 8 -5 9 -10
2 -14 -14 -8 -6 -47 10 -58 7 -4 9 -8 5 -8 -10 0 18 -30 28 -30 3 0 3 5 -1 12
-4 6 3 4 15 -5 13 -8 30 -13 37 -10 8 3 14 0 14 -7 0 -7 7 -10 15 -6 9 3 15 0
15 -8 0 -17 121 -20 133 -3 5 7 7 2 3 -13 -5 -23 -4 -23 9 -7 9 12 15 15 20 7
4 -6 13 -9 21 -6 9 3 11 -1 8 -12 -5 -15 -5 -15 5 -1 7 11 22 16 41 14 16 -1
30 2 30 7 0 5 6 6 13 1 23 -14 101 -10 114 6 7 9 13 11 13 5 0 -7 36 -10 108
-8 126 4 157 7 196 23 19 8 33 8 39 2 6 -6 17 -6 26 -2 9 5 27 7 39 6 13 -1
26 4 29 12 3 7 9 11 13 8 4 -3 24 2 44 10 20 8 36 12 36 8 0 -5 7 1 15 11 8
11 15 16 15 11 0 -4 9 2 20 15 11 12 17 26 15 31 -3 4 -1 10 4 13 11 7 2 46
-10 46 -5 0 -8 3 -7 8 6 17 -39 47 -70 46 -18 0 -35 3 -38 8 -3 5 -10 6 -15 3
-5 -4 -9 0 -9 7 0 9 -3 9 -10 -2 -5 -8 -10 -10 -10 -4 0 11 -10 13 -82 16 -26
1 -45 5 -42 9 7 12 -39 7 -55 -5 -12 -9 -12 -7 -2 12 10 18 9 22 -3 22 -8 0
-17 -6 -19 -12 -4 -8 -6 -7 -6 4 -1 11 -7 15 -21 11 -11 -3 -20 -1 -20 5 0 5
-10 12 -22 15 -13 2 -32 8 -43 12 -16 5 -17 5 -5 -4 9 -7 11 -11 3 -11 -7 0
-16 7 -21 16 -5 9 -15 14 -23 12 -8 -3 -30 1 -51 8 -20 7 -39 10 -42 7 -3 -4
-6 -2 -6 4 0 10 -26 14 -35 4z"/>
<path d="M2701 4404 c0 -11 3 -14 6 -6 3 7 2 16 -1 19 -3 4 -6 -2 -5 -13z"/>
<path d="M4305 2910 c10 -11 20 -18 23 -16 5 6 -23 36 -34 36 -4 0 1 -9 11
-20z"/>
<path d="M5897 5245 c3 -8 11 -15 19 -15 8 0 14 -4 14 -8 0 -4 9 -8 20 -9 29
-2 25 2 -20 26 -29 15 -38 17 -33 6z"/>
<path d="M7006 4466 c3 -8 13 -17 22 -21 13 -5 13 -2 -3 15 -21 24 -26 25 -19
6z"/>
<path d="M6085 8940 c5 -9 19 -12 98 -24 15 -3 25 -1 22 5 -4 5 -18 9 -33 9
-15 0 -42 4 -60 9 -18 6 -30 6 -27 1z"/>
<path d="M4155 8229 c-3 -4 2 -6 10 -5 21 3 28 13 10 13 -9 0 -18 -4 -20 -8z"/>
<path d="M6562 8198 c25 -11 55 -59 63 -103 2 -11 4 -20 5 -20 1 0 3 -8 5 -17
5 -24 25 -89 38 -120 13 -31 32 -39 23 -10 -3 9 -7 28 -10 42 -13 80 -53 199
-74 219 -8 9 -29 17 -46 18 l-31 2 27 -11z"/>
<path d="M6710 7945 c0 -8 5 -15 10 -15 6 0 10 7 10 15 0 8 -4 15 -10 15 -5 0
-10 -7 -10 -15z"/>
<path d="M6695 7891 c-3 -5 -1 -12 5 -16 5 -3 10 1 10 9 0 18 -6 21 -15 7z"/>
<path d="M6714 7828 c-13 -21 -11 -48 3 -48 9 0 13 10 11 30 -3 34 -4 35 -14
18z"/>
<path d="M6440 7740 c-12 -7 -10 -9 7 -7 12 0 19 5 17 9 -6 10 -6 10 -24 -2z"/>
<path d="M5795 1928 c-22 -13 -19 -38 5 -38 11 0 20 -2 20 -5 0 -11 -72 -191
-81 -201 -5 -6 -29 -11 -54 -11 -45 0 -94 -23 -96 -46 -1 -6 -3 -22 -4 -34 -2
-22 24 -55 48 -59 7 -2 22 -5 35 -8 12 -3 22 -1 22 5 0 5 6 9 14 9 8 0 26 15
40 33 15 17 31 38 37 45 5 6 25 12 44 12 42 0 111 51 137 101 31 61 33 118 6
158 -13 19 -32 36 -43 37 -57 9 -116 9 -130 2z m139 -106 c-6 -39 -26 -85 -44
-103 -27 -29 -71 -52 -80 -43 -8 9 52 176 72 202 18 21 57 -23 52 -56z m-224
-208 c0 -17 -37 -37 -56 -30 -16 6 -19 33 -4 38 27 9 60 5 60 -8z"/>
<path d="M6935 1925 c-6 -5 -18 -26 -25 -45 -15 -38 -31 -63 -37 -56 -7 6 -86
-14 -118 -30 -41 -22 -67 -59 -72 -105 -4 -33 0 -43 25 -69 64 -64 145 -25
186 88 18 51 28 65 54 68 43 7 62 44 23 44 -30 0 -33 15 -10 44 16 20 27 25
52 23 18 -2 40 0 50 5 25 12 21 38 -5 39 -13 0 -43 1 -67 3 -24 1 -49 -3 -56
-9z m-75 -157 c0 -5 -11 -33 -25 -63 -26 -54 -57 -74 -82 -53 -18 15 -16 63 4
84 31 30 103 53 103 32z"/>
<path d="M6174 1909 c-10 -12 -18 -22 -16 -23 4 -1 -10 -39 -36 -99 -11 -23
-22 -50 -25 -59 -4 -11 -13 -15 -27 -11 -15 4 -19 11 -15 22 4 9 9 32 12 51 3
19 12 42 19 50 10 12 10 18 0 33 -13 16 -14 16 -36 -1 -21 -17 -21 -19 -5 -35
13 -13 13 -17 2 -17 -14 0 -29 -26 -52 -92 -12 -32 -12 -37 3 -44 24 -10 54
-10 75 -1 11 5 24 4 31 -2 14 -12 29 5 54 62 6 15 19 27 28 27 11 0 14 -5 9
-17 -26 -62 -15 -84 38 -75 35 5 42 5 130 0 39 -3 65 1 75 9 16 12 15 15 -5
29 -21 15 -21 18 -8 44 23 44 11 57 -47 59 -43 1 -55 -3 -74 -25 -15 -15 -24
-37 -24 -57 0 -22 -3 -28 -9 -18 -5 7 -14 10 -20 7 -13 -8 -13 10 -2 39 12 28
-5 55 -34 55 -29 0 -29 -2 -10 43 27 65 10 91 -31 46z m191 -160 c-17 -32 -42
-35 -37 -3 4 21 19 34 40 34 9 0 9 -7 -3 -31z"/>
<path d="M6483 1797 c-32 -32 -38 -80 -13 -102 24 -22 57 -25 92 -8 26 12 34
27 43 73 10 53 -78 80 -122 37z m66 -59 c-11 -21 -18 -22 -39 -8 -13 9 -11 13
9 31 28 23 47 8 30 -23z"/>
<path d="M7050 1800 c-44 -44 -47 -103 -6 -116 11 -4 55 -8 96 -8 66 -1 77 2
95 22 11 13 21 28 21 33 1 5 2 15 3 23 0 7 10 16 22 19 18 5 20 2 14 -16 -16
-51 -17 -77 -4 -78 57 -6 71 -3 80 12 6 12 3 20 -12 30 -17 12 -19 18 -10 40
16 43 -4 61 -63 57 -52 -3 -56 -7 -81 -71 -14 -33 -18 -36 -36 -27 -14 8 -17
15 -10 23 5 7 11 26 13 42 3 30 2 30 -49 33 -42 2 -57 -2 -73 -18z m64 -28 c2
-4 -4 -19 -15 -32 -15 -20 -21 -22 -28 -11 -6 9 -5 21 2 33 12 19 32 24 41 10z"/>
<path d="M7230 1518 c0 -3 -17 -12 -37 -19 -48 -15 -109 -53 -140 -87 -46 -50
-104 -204 -82 -217 7 -5 15 16 35 98 3 15 10 27 16 27 5 0 7 4 4 9 -13 20 102
119 185 159 69 33 78 40 52 39 -18 -1 -33 -5 -33 -9z"/>
<path d="M7420 1272 c0 -5 19 -15 41 -22 23 -8 44 -21 46 -30 3 -8 26 -28 51
-45 26 -16 57 -46 69 -65 37 -57 44 -64 54 -49 17 27 -43 111 -123 172 -46 35
-138 61 -138 39z"/>
<path d="M6983 1175 c-12 -8 -20 -21 -18 -27 14 -66 19 -78 26 -78 5 0 9 -6 9
-14 0 -16 80 -89 88 -81 3 3 -7 14 -22 26 -44 35 -54 47 -72 94 -13 36 -14 48
-5 58 7 7 11 8 10 2 -6 -26 39 -111 74 -141 28 -23 85 -34 72 -14 -3 6 -15 10
-25 10 -28 0 -86 74 -101 131 -14 48 -15 49 -36 34z"/>
<path d="M7100 974 c0 -2 9 -8 20 -14 11 -6 20 -7 20 -2 0 6 -9 12 -20 15 -11
3 -20 3 -20 1z"/>
</g>
</svg>
